<svg xmlns="http://www.w3.org/2000/svg" viewBox="0 0 41.2 41"><defs><style>.cls-1{opacity:0.32;}.cls-2{fill:#a967aa;}.cls-3{fill:#133561;}</style></defs><title>banner-img-2</title><g id="Layer_2" data-name="Layer 2"><g id="Layer_1-2" data-name="Layer 1"><g class="cls-1"><circle class="cls-2" cx="25.88" cy="15.32" r="15.32"/></g><path class="cls-3" d="M7.21,23.41l-.43-.67C6.51,22.3,0,11.91,0,8.11a7.21,7.21,0,1,1,14.41,0c0,3.8-6.5,14.19-6.78,14.63Zm0-21.51A6.21,6.21,0,0,0,1,8.11c0,3,4.74,11,6.21,13.41,1.46-2.4,6.2-10.42,6.2-13.41A6.21,6.21,0,0,0,7.21,1.9Z"/><path class="cls-3" d="M7.21,12.79a4.56,4.56,0,1,1,4.55-4.56A4.56,4.56,0,0,1,7.21,12.79Zm0-8.12a3.56,3.56,0,1,0,3.55,3.56A3.56,3.56,0,0,0,7.21,4.67Z"/><path class="cls-3" d="M34,34.52l-.42-.67c-.25-.39-6-9.52-6-12.87a6.38,6.38,0,0,1,12.76,0c0,3.35-5.71,12.48-6,12.87ZM34,15.6A5.38,5.38,0,0,0,28.6,21c0,2.35,3.56,8.66,5.38,11.65,1.82-3,5.38-9.3,5.38-11.65A5.38,5.38,0,0,0,34,15.6Z"/><path class="cls-3" d="M34,25.15A4.06,4.06,0,1,1,38,21.09,4.06,4.06,0,0,1,34,25.15ZM34,18A3.06,3.06,0,1,0,37,21.09,3.07,3.07,0,0,0,34,18Z"/><path class="cls-3" d="M34,37.88l-.9-.43a3.94,3.94,0,0,0,.39-1.72h1A4.84,4.84,0,0,1,34,37.88Z"/><path class="cls-3" d="M29.52,40.69a5,5,0,0,1-3.64-1.59l.73-.68a4.07,4.07,0,0,0,3.5,1.23l.14,1A4.4,4.4,0,0,1,29.52,40.69Zm-4-6h-1V30.38h1Z"/><rect class="cls-3" x="24.56" y="24.03" width="1" height="2.42"/><path class="cls-3" d="M25.56,21.41h-1v-3h1Zm0-6.08h-1v-.59A3.93,3.93,0,0,0,24,12.68l.85-.52a4.89,4.89,0,0,1,.73,2.58Z"/><path class="cls-3" d="M16.63,21.39h-1v-3h1Zm0-6.07h-1v-.58a5,5,0,0,1,.73-2.6l.86.53a3.89,3.89,0,0,0-.59,2.07ZM21.92,11a4,4,0,0,0-2.65,0l-.33-.95a5.07,5.07,0,0,1,3.31,0Z"/><rect class="cls-3" x="15.63" y="24.34" width="1" height="2.1"/><path class="cls-3" d="M15.91,38.62l-.86-.52A3.93,3.93,0,0,0,15.63,36v-.59h1V36A5,5,0,0,1,15.91,38.62Zm.72-6.21h-1v-3h1Z"/><path class="cls-3" d="M11.67,41A4.85,4.85,0,0,1,10,40.72l.33-.94a4,4,0,0,0,2.64,0l.34.95A5,5,0,0,1,11.67,41ZM7.44,38.64A5,5,0,0,1,6.71,36v-.58h1V36a4,4,0,0,0,.58,2.07Zm.27-6.21h-1v-3h1Z"/><rect class="cls-3" x="6.71" y="24.34" width="1" height="2"/></g></g></svg>