<svg xmlns="http://www.w3.org/2000/svg" viewBox="0 0 226.17 226.22"><defs><style>.cls-1{fill:#193560;}</style></defs><title>img-home-search</title><g id="Layer_2" data-name="Layer 2"><g id="Isolation_Mode" data-name="Isolation Mode"><path class="cls-1" d="M161.29,136.59l59.15,59.17c5.6,5.6,7.21,12,4.32,19.56-4.11,10.71-18.24,14.6-26.7,6.77-10.47-9.69-20.4-20-30.57-30L136.3,161.41c-21.76,14.2-46.08,17.91-71.45,11.32C42.62,167,25,153.72,13,134-8.95,97.79-3.3,50.3,31.27,20.62c31.49-27,81.92-28.54,115.56,1.79C177.66,50.2,186.3,97.34,161.29,136.59Zm-73.47,4.46c29.5,0,53.78-24,53.41-53.53A53,53,0,0,0,88,34.8C58.52,35,34.43,58.85,34.72,88,35,117.39,58.7,141.05,87.82,141.05Z"/></g></g></svg>