<svg id="Layer_1" data-name="Layer 1" xmlns="http://www.w3.org/2000/svg" viewBox="0 0 46.14 48.07"><defs><style>.cls-1{fill:#a967aa;}.cls-2{fill:#fcfcfc;stroke:#fcfcfc;stroke-miterlimit:10;}</style></defs><title>bulb-icon2</title><circle class="cls-1" cx="30.13" cy="16.01" r="16.01"/><path class="cls-2" d="M578.53,439.07c-.32-8.21,5.62-14.56,12.92-14.88a13.77,13.77,0,0,1,14.3,13.44,13.94,13.94,0,0,1-4.35,10.31,9,9,0,0,0-2.75,5.57,1.37,1.37,0,0,1-1.2,1.35q-5.22,1.31-10.44,2.65c-.64.17-1.29.19-1.46-.54s.47-1,1.09-1.14c3.18-.78,6.35-1.58,9.54-2.32a1,1,0,0,0,.93-1,10.31,10.31,0,0,1,3.23-5.91,12,12,0,0,0-16.08-17.82,12.28,12.28,0,0,0-.38,18,12.18,12.18,0,0,1,3.56,7.49c.07.59-.11,1.15-.78,1.1a1.21,1.21,0,0,1-.82-.81A13.44,13.44,0,0,0,582,447,12.32,12.32,0,0,1,578.53,439.07Z" transform="translate(-578.02 -420.68)"/><path class="cls-2" d="M592.11,442.81a20.35,20.35,0,0,1,2.61-.94c1.25-.28,1.74.37,1.28,1.56a23.36,23.36,0,0,0-1.76,8.42,1.42,1.42,0,0,1-.74,1.11c-.75.15-1-.55-.88-1.12.32-2.29.71-4.57,1.08-6.85a2.33,2.33,0,0,0,.06-.95c-.33.26-.69.49-1,.77-.82.75-1.21.72-1.87-.14a2.61,2.61,0,0,0-1-.81c0,.21.09.41.12.62q.59,3.47,1.16,6.95c0,.24.1.56,0,.72a5.46,5.46,0,0,1-.89.84c-.23-.29-.62-.55-.67-.87-.3-1.91-.45-3.84-.8-5.74a19.65,19.65,0,0,0-1-3.09c-.38-1.07,0-1.64,1.09-1.45A28.92,28.92,0,0,1,592.11,442.81Z" transform="translate(-578.02 -420.68)"/><path class="cls-2" d="M598.14,460.44c.17.38.51.78.46,1.13a1.39,1.39,0,0,1-.75,1c-1.33.42-2.71.71-4.07,1.05l-6.34,1.58a1.78,1.78,0,0,1-.92.13,3.47,3.47,0,0,1-.9-.66c.23-.29.4-.76.69-.84,2.09-.6,4.2-1.12,6.31-1.66,1.46-.38,2.93-.74,4.39-1.11l.71-.18Z" transform="translate(-578.02 -420.68)"/><path class="cls-2" d="M586.35,461.46c-.17-.16-.67-.42-.67-.67a1.27,1.27,0,0,1,.66-1q5.52-1.45,11.07-2.75c.35-.08.81.31,1.22.48-.26.36-.45,1-.78,1.05-3.67,1-7.37,1.86-11.06,2.78C586.73,461.41,586.66,461.41,586.35,461.46Z" transform="translate(-578.02 -420.68)"/><path class="cls-2" d="M591.38,468.24a20.71,20.71,0,0,1-2.57-1.1,1.42,1.42,0,0,1-.52-1.27c.24-.67.89-.41,1.33-.13a4.24,4.24,0,0,0,5.19-.21c.25-.18.77,0,1.17.08-.09.4-.05.95-.29,1.16A6.33,6.33,0,0,1,591.38,468.24Z" transform="translate(-578.02 -420.68)"/></svg>