<svg xmlns="http://www.w3.org/2000/svg" viewBox="0 0 51.98 53.91"><title>icon-share</title><g id="Layer_2" data-name="Layer 2"><g id="Isolation_Mode" data-name="Isolation Mode"><path d="M41.53,53.41a10,10,0,0,1-9.93-9.17L15,34.93A10,10,0,0,1,10.6,36h-.13A9.95,9.95,0,0,1,.81,23.6a10,10,0,0,1,9.51-7.5h.14a10.06,10.06,0,0,1,4.28,1l12-7.13A9.92,9.92,0,0,1,36.54.5h.13a10,10,0,0,1,.13,19.91h-.13a10,10,0,0,1-4.28-1L21.54,25.91,37,34.57a10.12,10.12,0,0,1,4.38-1.08h.13a10,10,0,0,1,.15,19.92ZM15,30.62a2.1,2.1,0,0,1,1,.25L34.56,41.3a2,2,0,0,1,1,1.85A6,6,0,1,0,46.64,40.4a6,6,0,0,0-5.12-2.91,6.16,6.16,0,0,0-3,.84l-.31.2a2,2,0,0,1-2.11.1L17.43,28.2a2,2,0,0,1-1-1.86,6.12,6.12,0,0,0,0-.74,2,2,0,0,1,1-1.87l14-8.31a2,2,0,0,1,1-.28,2,2,0,0,1,1.09.32,5.95,5.95,0,0,0,9.17-5.08A5.94,5.94,0,0,0,32.41,6.31a5.91,5.91,0,0,0-1.69,4.22c0,.12,0,.24,0,.39a2,2,0,0,1-1,1.86l-14,8.31a2,2,0,0,1-1,.28,2,2,0,0,1-1.09-.32,5.94,5.94,0,0,0-6.27-.11A5.94,5.94,0,0,0,5.35,29.1,6,6,0,0,0,10.47,32a6.16,6.16,0,0,0,3-.84l.31-.2A2,2,0,0,1,15,30.62Z"/><path d="M36.67,1a9.46,9.46,0,0,1,.13,18.91h-.13a9.43,9.43,0,0,1-4.3-1l-11.83,7L37,35.14A9.44,9.44,0,0,1,41.39,34h.13a9.46,9.46,0,0,1,4.84,17.59,9.6,9.6,0,0,1-4.7,1.33h-.12a9.46,9.46,0,0,1-9.46-9L15,34.36a9.48,9.48,0,0,1-4.39,1.15h-.12a9.5,9.5,0,0,1-8.14-4.62,9.46,9.46,0,0,1,8-14.29h.13a9.43,9.43,0,0,1,4.3,1l12.46-7.41A9.47,9.47,0,0,1,36.55,1h.12M14.78,20.87a1.51,1.51,0,0,1-.82-.24,6.5,6.5,0,0,0-3.5-1h-.09a6.51,6.51,0,0,0-3.21.91,6.4,6.4,0,0,0-2.95,4,6.33,6.33,0,0,0,.71,4.88,6.46,6.46,0,0,0,5.55,3.16h.08a6.48,6.48,0,0,0,3.21-.91l.34-.22a1.54,1.54,0,0,1,.85-.26,1.45,1.45,0,0,1,.73.19L34.32,41.74a1.52,1.52,0,0,1,.76,1.39,6.45,6.45,0,0,0,6.46,6.77h.08a6.45,6.45,0,0,0,5.45-9.75A6.48,6.48,0,0,0,41.52,37h-.09a6.36,6.36,0,0,0-3.2.9l-.34.22a1.47,1.47,0,0,1-.85.26,1.45,1.45,0,0,1-.73-.19L17.67,27.76a1.48,1.48,0,0,1-.76-1.39,7.3,7.3,0,0,0,0-.81,1.48,1.48,0,0,1,.73-1.4l14-8.31a1.51,1.51,0,0,1,.77-.21,1.47,1.47,0,0,1,.81.24,6.5,6.5,0,0,0,3.5,1h.09A6.46,6.46,0,0,0,36.67,4h-.08a6.46,6.46,0,0,0-6.37,6.54c0,.12,0,.25,0,.41a1.5,1.5,0,0,1-.73,1.4l-14,8.31a1.48,1.48,0,0,1-.76.21M36.68,0h-.14A10.42,10.42,0,0,0,26.25,9.63L14.71,16.5a10.53,10.53,0,0,0-4.25-.9h-.14A10.46,10.46,0,0,0,1.47,31.4a10.53,10.53,0,0,0,9,5.11h.14a10.43,10.43,0,0,0,4.35-1l16.17,9a10.45,10.45,0,0,0,10.41,9.37h.13a10.63,10.63,0,0,0,5.21-1.47A10.46,10.46,0,0,0,41.52,33h-.14A10.43,10.43,0,0,0,37,34L22.54,25.89,32.42,20a10.53,10.53,0,0,0,4.25.9h.14A10.46,10.46,0,0,0,36.68,0ZM14.78,21.87a2.51,2.51,0,0,0,1.28-.35l14-8.31a2.49,2.49,0,0,0,1.22-2.33c0-.14,0-.25,0-.35A5.46,5.46,0,0,1,36.6,5h.07a5.46,5.46,0,0,1,.07,10.91h-.07a5.41,5.41,0,0,1-3-.87,2.51,2.51,0,0,0-2.64,0l-14,8.31a2.49,2.49,0,0,0-1.21,2.34,5.12,5.12,0,0,1,0,.68,2.48,2.48,0,0,0,1.27,2.31L35.82,39.06a2.47,2.47,0,0,0,1.22.32A2.52,2.52,0,0,0,38.45,39l.29-.19A5.4,5.4,0,0,1,41.45,38h.07a5.46,5.46,0,0,1,.09,10.91h-.07a5.45,5.45,0,0,1-5.46-5.72,2.48,2.48,0,0,0-1.28-2.31L16.17,30.44A2.47,2.47,0,0,0,15,30.12a2.52,2.52,0,0,0-1.41.43l-.29.19a5.52,5.52,0,0,1-2.71.77h-.07a5.46,5.46,0,0,1-4.69-2.67,5.45,5.45,0,0,1,1.89-7.47,5.44,5.44,0,0,1,2.71-.77h.08a5.45,5.45,0,0,1,3,.87,2.51,2.51,0,0,0,1.36.4Z"/></g></g></svg>