<svg id="Layer_1" data-name="Layer 1" xmlns="http://www.w3.org/2000/svg" viewBox="0 0 38.37 32.79"><defs><style>.cls-1{opacity:0.32;}.cls-2{fill:#a967aa;}.cls-3{fill:none;stroke:#193661;stroke-linecap:round;stroke-linejoin:round;stroke-width:1.18px;}</style></defs><title>icon-verified</title><g class="cls-1"><circle class="cls-2" cx="26.7" cy="11.67" r="11.67"/></g><path class="cls-3" d="M486,184l-8.19-1.94a.66.66,0,0,0-.8.49l-2.35,9.9a.67.67,0,0,0,.5.8l4.15,1a10.13,10.13,0,0,1-1.5,3.09,7.36,7.36,0,0,1-4.35,2.75.69.69,0,0,0-.42.35.68.68,0,0,0,0,.54l.85,2.12a.67.67,0,0,0,.62.43l.12,0a11.35,11.35,0,0,0,6.46-3.29,15.65,15.65,0,0,0,3.49-7.22l1.94-8.19a.67.67,0,0,0-.5-.8" transform="translate(-461.1 -171.37)"/><path class="cls-3" d="M474.72,181.3l-8.2-1.94a.68.68,0,0,0-.8.5l-2.34,9.89a.67.67,0,0,0,.49.81l4.15,1a10.37,10.37,0,0,1-1.49,3.1,7.53,7.53,0,0,1-4.36,2.75.66.66,0,0,0-.43.88l.84,2.13a.66.66,0,0,0,.62.42h.12a11.47,11.47,0,0,0,6.46-3.29,15.7,15.7,0,0,0,3.49-7.22l1.94-8.19a.68.68,0,0,0-.49-.81" transform="translate(-461.1 -171.37)"/><path class="cls-3" d="M492.31,201.3a25.38,25.38,0,0,0-6.41-7.74l0,.23a20.23,20.23,0,0,1-1.61,4.48,19.43,19.43,0,0,1,4.69,4.92.81.81,0,0,0,.68.37.92.92,0,0,0,.39-.09l2-1.09a.81.81,0,0,0,.33-1.08" transform="translate(-461.1 -171.37)"/><path class="cls-3" d="M488,178.5a3.76,3.76,0,1,1-3.76-3.75A3.75,3.75,0,0,1,488,178.5" transform="translate(-461.1 -171.37)"/><path class="cls-3" d="M476.72,175.76A3.76,3.76,0,1,1,473,172a3.75,3.75,0,0,1,3.75,3.75" transform="translate(-461.1 -171.37)"/></svg>