<svg xmlns="http://www.w3.org/2000/svg" viewBox="0 0 59.03 55.53"><defs><style>.cls-1{fill:#676767;}</style></defs><title>icon-calendar-gray</title><g id="Layer_2" data-name="Layer 2"><g id="Isolation_Mode" data-name="Isolation Mode"><path class="cls-1" d="M6.7,41.79H24.45a1.72,1.72,0,1,0,0-3.43H6.7a3.27,3.27,0,0,1-3.26-3.27V10.39A3.27,3.27,0,0,1,6.7,7.12a1.72,1.72,0,1,0,0-3.43A6.71,6.71,0,0,0,0,10.39v24.7A6.71,6.71,0,0,0,6.7,41.79Z"/><path class="cls-1" d="M42,19.87a1.72,1.72,0,0,0,3.44,0V10.39a6.71,6.71,0,0,0-6.7-6.7H35.08A4.26,4.26,0,0,0,30.87,0h-.54a4.27,4.27,0,0,0-4.22,3.69H19.34A4.25,4.25,0,0,0,15.13,0h-.54a4.26,4.26,0,0,0-4.25,4.25V7a4.26,4.26,0,0,0,4.25,4.26h.54a4.26,4.26,0,0,0,4.25-4.16h6.7a4.26,4.26,0,0,0,4.25,4.16h.54a4.27,4.27,0,0,0,4.25-4.16h3.64A3.27,3.27,0,0,1,42,10.39V15H7.43a1.72,1.72,0,0,0,0,3.44H42Zm-11.15-12h-.54a.81.81,0,0,1-.81-.72s0-.06,0-.1V4.25a.82.82,0,0,1,.82-.81h.54a.78.78,0,0,1,.58.25.75.75,0,0,1,.23.56V7a.31.31,0,0,1,0,.1A.81.81,0,0,1,30.87,7.84Zm-15.74,0h-.54a.81.81,0,0,1-.8-.72.3.3,0,0,1,0-.1V4.25A.76.76,0,0,1,14,3.69a.76.76,0,0,1,.58-.25h.54a.76.76,0,0,1,.58.25.76.76,0,0,1,.24.56V7s0,.07,0,.1A.83.83,0,0,1,15.13,7.84Z"/><circle class="cls-1" cx="11.43" cy="23.91" r="2.58"/><circle class="cls-1" cx="22.73" cy="23.91" r="2.58" transform="translate(-7.46 10.59) rotate(-22.64)"/><circle class="cls-1" cx="11.43" cy="32.87" r="2.58"/><circle class="cls-1" cx="22.73" cy="32.87" r="2.58" transform="translate(-10.9 11.28) rotate(-22.64)"/><path class="cls-1" d="M42.8,55.53A16.23,16.23,0,1,0,26.58,39.3,16.25,16.25,0,0,0,42.8,55.53Zm0-29A12.79,12.79,0,1,1,30,39.3,12.81,12.81,0,0,1,42.8,26.51Z"/><circle class="cls-1" cx="42.8" cy="39.3" r="8.91"/></g></g></svg>