<svg xmlns="http://www.w3.org/2000/svg" viewBox="0 0 295.13 275.34"><defs><style>.cls-1{fill:#fff;}</style></defs><title>icon-like-liked</title><g id="Layer_2" data-name="Layer 2"><g id="Layer_1-2" data-name="Layer 1"><circle class="cls-1" cx="56" cy="197.83" r="9.66"/><path class="cls-1" d="M290.67,123.55c-3.93-8.19-13.49-21.13-35.77-26.41-1.65-.39-3.3-.78-4.9-1.18a168,168,0,0,0,5.49-19.59c5-10.3,7.61-20.5,7.65-30.34A51.46,51.46,0,0,0,256,19.23C248.85,7.37,237.58,0,226.57,0c-.45,0-.89,0-1.33,0-3.09.16-12.51.68-19.43,9-3.62,4.33-5,8.9-6.53,13.75-.74,2.37-1.57,5.06-2.85,8.56-.23.62-.45,1.25-.68,1.89-4.88,13.49-8.73,24.16-37,33.54s-45.1,20.47-53.79,27.58l-19,0A20,20,0,0,0,70.4,87H20A20,20,0,0,0,0,107V219.52a20,20,0,0,0,20,20H88a20,20,0,0,0,14.88-6.64c4.61,2.71,9.38,6.07,15.3,10.23,4.77,3.35,10.17,7.15,16.51,11.32,19.92,13.09,46.84,20.91,72,20.91,12.63,0,30.11-2,41.67-11.65,11.16-9.29,15.68-18.56,17.23-26.06,8.95-9,14.53-18.37,16.63-28a39.93,39.93,0,0,0,.9-7c12.86-17.89,12.72-34.35,8.6-46.12C298,141.29,294.43,130,290.67,123.55Zm-276.56,96V107h50.4L82.09,219.52Zm248.16-23s6.5,12.84-16.26,31.88c0,0,3,8.64-10.44,19.87s-58.72,9.89-89.9-10.6c-22.86-15-33.15-25.18-52.46-30.72L78.74,114.38l34-.08S125.94,98.67,165,85.72s44.59-32.13,50.22-47.55S219.12,20.4,226.34,20s27.13,17.6,10.11,49.7c0,0-3.53,18.74-10.21,31-1.43,2.63-2.74,5-3.81,7.12,5.14,3,12.83,5.24,27.86,8.8,14.65,3.47,20.42,11,22.69,16.35,5.43,8.24-.78,18.84-3.89,23.5C269.09,156.45,284.17,172.53,262.27,196.57Z"/></g></g></svg>