<?xml version="1.0" encoding="utf-8"?>
<!-- Generator: Adobe Illustrator 21.0.0, SVG Export Plug-In . SVG Version: 6.00 Build 0)  -->
<svg version="1.1" id="Layer_1" xmlns="http://www.w3.org/2000/svg" xmlns:xlink="http://www.w3.org/1999/xlink" x="0px" y="0px"
	 viewBox="0 0 39.8 39.8" style="enable-background:new 0 0 39.8 39.8;" xml:space="preserve">
<style type="text/css">
	.st0{fill:#FFFFFF;}
</style>
<title>Asset 1social_icon</title>
<g id="Layer_2">
	<g id="_03-SINGLE-COLOR">
		<path class="st0" d="M13.1,37.2C3.3,33.5-1.7,22.6,1.9,12.8S16.5-2.1,26.4,1.6S41.2,16.2,37.6,26C34.1,35.3,24,40.4,14.4,37.6
			l0.1-0.1c0.6-1,1.2-2,1.7-3.1c0.3-0.8,0.6-1.6,0.8-2.4c0.3-1.2,0.6-2.4,0.9-3.6v-0.1c0.1,0.1,0.2,0.3,0.3,0.4
			c0.5,0.6,1.1,1,1.8,1.3c0.9,0.4,1.9,0.5,2.9,0.4c1.7-0.2,3.3-0.8,4.7-1.9c1-0.8,1.9-1.8,2.5-3c0.7-1.3,1.2-2.7,1.5-4.2
			c0.2-1,0.2-2.1,0.2-3.1c-0.1-2.2-0.9-4.4-2.4-6.1c-1.5-1.8-3.6-3-5.9-3.6c-1.3-0.3-2.6-0.4-3.9-0.4c-1,0-2,0.2-3,0.4
			c-1.4,0.3-2.8,1-4,1.8c-1.6,1.1-2.9,2.7-3.6,4.6c-0.4,1-0.7,2-0.8,3c-0.3,2.2,0.2,4.4,1.3,6.3c0.5,0.8,1.1,1.5,1.9,2
			c0.2,0.1,0.4,0.2,0.6,0.3c0.2,0.1,0.4,0.1,0.5-0.1c0-0.1,0.1-0.1,0.1-0.2c0.2-0.7,0.3-1.4,0.5-2.1c0-0.2,0-0.4-0.1-0.5
			c-0.6-0.8-1.1-1.8-1.3-2.9c-0.8-4.3,2-8.4,6.3-9.2c1.6-0.4,3.3-0.2,4.9,0.3c2.3,0.8,4.1,2.8,4.6,5.2c0.2,0.8,0.3,1.7,0.2,2.6
			c0,1-0.2,2-0.5,2.9c-0.3,1.1-0.8,2.1-1.5,3C24.8,26.5,24,27,23,27.3c-0.7,0.2-1.5,0.2-2.2,0c-0.9-0.3-1.7-1-1.9-2
			c-0.1-0.4-0.1-0.9,0.1-1.3c0.3-1.1,0.6-2.1,0.9-3.1c0.2-0.7,0.4-1.4,0.5-2.1c0.1-0.6,0.1-1.2-0.1-1.8c-0.3-1-1.2-1.7-2.2-1.6
			c-0.8,0-1.6,0.4-2.1,1c-0.6,0.7-1,1.5-1.1,2.4c-0.2,1.2-0.1,2.5,0.4,3.6c0.1,0.2,0.1,0.4,0,0.6c-0.7,3-1.4,6-2.1,8.9
			c-0.1,0.7-0.2,1.3-0.2,2c0,1.1,0,2.2,0.2,3.2C13.1,37,13.1,37.2,13.1,37.2z"/>
	</g>
</g>
</svg>
