<svg xmlns="http://www.w3.org/2000/svg" viewBox="0 0 36.78 49.25"><defs><style>.cls-1{stroke:#000;stroke-miterlimit:10;}</style></defs><title>icon-favorite</title><g id="Layer_2" data-name="Layer 2"><g id="Isolation_Mode" data-name="Isolation Mode"><path class="cls-1" d="M2,48.75a1.6,1.6,0,0,1-.76-.2,1.5,1.5,0,0,1-.74-1.3V5.17a4.55,4.55,0,0,1,.12-1v0A5.05,5.05,0,0,1,1.06,3h0A5.31,5.31,0,0,1,1.71,2,4.83,4.83,0,0,1,3,1l0,0A4.82,4.82,0,0,1,4.45.56h0L5,.51H31.81l.48,0h0A4.82,4.82,0,0,1,33.71,1l0,0a4.64,4.64,0,0,1,1.31,1,4.86,4.86,0,0,1,.65.91h0a5.05,5.05,0,0,1,.43,1.14v0a4.69,4.69,0,0,1,.12,1V46.72A1.5,1.5,0,0,1,34.05,48L18.7,39.56l-16,9A1.48,1.48,0,0,1,2,48.75ZM3.5,31.11V44.68L18,36.53a1.51,1.51,0,0,1,1.47,0l13.86,7.65v-39a2.11,2.11,0,0,0-.05-.35,1.75,1.75,0,0,0-.16-.42,1.5,1.5,0,0,0-.23-.33,1.89,1.89,0,0,0-.47-.36,1.47,1.47,0,0,0-.49-.16l-.24,0H5.14l-.24,0a1.47,1.47,0,0,0-.49.16,1.92,1.92,0,0,0-.48.37,1.51,1.51,0,0,0-.22.32,1.75,1.75,0,0,0-.16.42,2.47,2.47,0,0,0,0,.38V31.11Z"/><path class="cls-1" d="M23.69,29.62A2.76,2.76,0,0,1,22,29L18.39,26.4,14.7,29.09a2.72,2.72,0,0,1-4.19-3l1.42-4.35L8.22,19a2.69,2.69,0,0,1-1.09-1.77A2.73,2.73,0,0,1,10,14.1H14.4l1.4-4.35a2.72,2.72,0,0,1,2.59-1.89,2.62,2.62,0,0,1,.83.13A2.73,2.73,0,0,1,21,9.76l1.41,4.35H27A2.72,2.72,0,0,1,28.56,19l-3.7,2.68,1.42,4.35a2.74,2.74,0,0,1-2.59,3.57Zm-5.3-6.94,4.76,3.47-1.83-5.59,4.76-3.46-5.88,0-1.81-5.61-1.81,5.61-5.89,0,4.77,3.45-1.82,5.59Z"/></g></g></svg>