<?xml version="1.0" encoding="utf-8"?>
<!-- Generator: Adobe Illustrator 21.0.0, SVG Export Plug-In . SVG Version: 6.00 Build 0)  -->
<svg version="1.1" id="Layer_1" xmlns="http://www.w3.org/2000/svg" xmlns:xlink="http://www.w3.org/1999/xlink" x="0px" y="0px"
	 viewBox="0 0 42.5 35.4" style="enable-background:new 0 0 42.5 35.4;" xml:space="preserve">
<style type="text/css">
	.st0{fill:#FFFFFF;}
</style>
<title>Twittersocial_icon</title>
<g id="Layer_2">
	<g id="_03-SINGLE-COLOR">
		<path id="Twitter" class="st0" d="M41.3,0.6c-1.7,1-3.6,1.8-5.5,2.2C34.2,1,31.9,0,29.4,0c-4.9,0.1-8.8,4.1-8.7,8.9c0,0,0,0,0,0
			c0,0.7,0.1,1.3,0.2,2C13.9,10.6,7.4,7.2,3,1.6C2.2,3,1.8,4.6,1.8,6.1c0,3,1.4,5.8,3.9,7.4c-1.4,0-2.8-0.4-4-1.1v0.1
			c0,4.2,2.9,7.9,7,8.8c-0.7,0.2-1.5,0.3-2.3,0.3c-0.6,0-1.1-0.1-1.6-0.2c1.1,3.6,4.4,6.1,8.1,6.2C9.8,30.2,6,31.5,2.1,31.5
			c-0.7,0-1.4,0-2.1-0.1c4,2.6,8.6,4,13.4,4c16,0,24.8-13.6,24.8-25.4c0-0.4,0-0.8,0-1.2c1.7-1.3,3.2-2.8,4.3-4.6
			c-1.6,0.7-3.3,1.2-5,1.4C39.3,4.5,40.7,2.7,41.3,0.6z"/>
	</g>
</g>
</svg>
