<svg xmlns="http://www.w3.org/2000/svg" viewBox="0 0 204.83 227.66"><defs><style>.cls-1{fill:#fff;stroke:#fff;stroke-miterlimit:10;stroke-width:5px;}</style></defs><title>img-popup-profile</title><g id="Layer_2" data-name="Layer 2"><g id="Isolation_Mode" data-name="Isolation Mode"><path class="cls-1" d="M140.75,123a67.64,67.64,0,0,0,25.9-53.62c0-36.85-28.82-66.83-64.23-66.83s-64.24,30-64.24,66.83A67.61,67.61,0,0,0,64.08,123,85,85,0,0,0,2.5,204.89v2a18.25,18.25,0,0,0,18.23,18.23H184.1a18.25,18.25,0,0,0,18.23-18.23v-2A85,85,0,0,0,140.75,123Zm-66,5.76A4,4,0,0,0,76,121.27C57.62,111,46.18,91.11,46.18,69.33c0-32.44,25.23-58.83,56.24-58.83s56.23,26.39,56.23,58.83c0,21.78-11.44,41.68-29.84,51.94a4,4,0,0,0,1.27,7.44,77,77,0,0,1,64.25,76.18v2a10.24,10.24,0,0,1-10.23,10.23H20.73A10.24,10.24,0,0,1,10.5,206.93v-2A77,77,0,0,1,74.75,128.71Z"/></g></g></svg>