<svg xmlns="http://www.w3.org/2000/svg" viewBox="0 0 47.5 64.75"><defs><style>.cls-1{stroke:#000;stroke-miterlimit:10;}</style></defs><title>img-favorite</title><g id="Layer_2" data-name="Layer 2"><g id="Layer_1-2" data-name="Layer 1"><g id="Layer_2-2" data-name="Layer 2"><g id="Isolation_Mode" data-name="Isolation Mode"><path class="cls-1" d="M2.45,64.25a2.06,2.06,0,0,1-1-.26,2,2,0,0,1-1-1.72V6.66A5.81,5.81,0,0,1,.66,5.34h0a6.55,6.55,0,0,1,.57-1.55h0a7.07,7.07,0,0,1,.85-1.32A6.28,6.28,0,0,1,3.75,1.15h0A6.09,6.09,0,0,1,5.64.57h0L6.36.5H41.88a6.09,6.09,0,0,1,1.85.65h0a6.08,6.08,0,0,1,1.71,1.32,6.63,6.63,0,0,1,.84,1.2h0a6.23,6.23,0,0,1,.56,1.51h0A6.44,6.44,0,0,1,47,6.5V61.57a2,2,0,0,1-2,1.9,1.93,1.93,0,0,1-.79-.21l-20-11.15L3.36,64A1.91,1.91,0,0,1,2.45,64.25Zm2-23.31V58.87L23.28,48.1a1.93,1.93,0,0,1,1.92,0l18,10.11V6.67a2.44,2.44,0,0,0-.07-.46A2,2,0,0,0,43,5.65a2.49,2.49,0,0,0-.29-.43,2.64,2.64,0,0,0-.62-.48,1.8,1.8,0,0,0-.63-.21H6.23a1.79,1.79,0,0,0-.64.21A2.68,2.68,0,0,0,5,5.23a2,2,0,0,0-.29.42,2.92,2.92,0,0,0-.21.56,4.17,4.17,0,0,0,0,.5V40.94Z"/><path class="cls-1" d="M30.69,39a3.56,3.56,0,0,1-2.2-.82l-4.7-3.44L19,38.27A3.52,3.52,0,0,1,14,37.45a3.66,3.66,0,0,1-.51-3.15l1.85-5.74-4.83-3.63A3.56,3.56,0,0,1,9.13,22.6a3.61,3.61,0,0,1,3-4.11,3.14,3.14,0,0,1,.75,0h5.72l1.83-5.75a3.54,3.54,0,0,1,3.37-2.5,3.59,3.59,0,0,1,1.08.17,3.63,3.63,0,0,1,2.32,2.34L29,18.47h6a3.61,3.61,0,0,1,2,6.46l-4.82,3.55,1.85,5.75a3.62,3.62,0,0,1-2.32,4.54,3.39,3.39,0,0,1-1,.17Zm-6.9-9.17L30,34.38,27.6,27l6.2-4.58H26.15L23.79,15l-2.36,7.41H13.77L20,27l-2.36,7.39Z"/></g></g></g></g></svg>