<svg xmlns="http://www.w3.org/2000/svg" viewBox="0 0 248.72 306.71"><defs><style>.cls-1{fill:#fff;}</style></defs><title>img-popup-notif</title><g id="Layer_2" data-name="Layer 2"><g id="Layer_1-2" data-name="Layer 1"><path class="cls-1" d="M164.7,76.36a65.23,65.23,0,0,0-46.42,19.23l-.12.12C91.34,124,64.39,138.35,38.05,138.35a74.77,74.77,0,0,1-11.34-.87L23.56,137,0,160.57,146.15,306.71l23.56-23.56-.48-3.15c-4.57-30.07,9.48-60.84,41.77-91.45l.12-.12A65.65,65.65,0,0,0,164.7,76.36Zm37.56,103.09c-29.58,28.07-45.1,56.75-46.38,85.47l-31-31a6.31,6.31,0,0,0-8.92,8.92L154.07,281l-7.92,7.92L17.84,160.57l7.92-7.93,46.29,46.29A6.31,6.31,0,0,0,81,190L41.81,150.84c28.67-1.25,57.39-16.82,85.45-46.39a53,53,0,0,1,75,75Z"/><path class="cls-1" d="M188.82,109a6.31,6.31,0,0,0,0,8.92A34.18,34.18,0,0,1,189,166a6.31,6.31,0,1,0,9,8.88,46.83,46.83,0,0,0-.18-65.9A6.3,6.3,0,0,0,188.82,109Z"/><path class="cls-1" d="M95.55,204.58a6.31,6.31,0,0,0-8.92,8.92L96.16,223a6.3,6.3,0,0,0,8.92,0,6.31,6.31,0,0,0,0-8.92Z"/><path class="cls-1" d="M228,58a20.72,20.72,0,1,0,14.65,6.07A20.58,20.58,0,0,0,228,58Zm5.73,26.45a8.11,8.11,0,1,1,2.37-5.73A8.07,8.07,0,0,1,233.73,84.44Z"/><path class="cls-1" d="M205.72,33.24a6.31,6.31,0,0,0,4.46-10.77,76.94,76.94,0,0,0-108.68,0,6.31,6.31,0,0,0,8.92,8.92,64.31,64.31,0,0,1,90.84,0A6.28,6.28,0,0,0,205.72,33.24Z"/><path class="cls-1" d="M186.22,52.74A6.31,6.31,0,0,0,190.68,42,49.33,49.33,0,0,0,121,42a6.31,6.31,0,0,0,8.92,8.92,36.7,36.7,0,0,1,51.84,0A6.28,6.28,0,0,0,186.22,52.74Z"/><path class="cls-1" d="M139.32,60.29a6.31,6.31,0,1,0,8.92,8.92,10.76,10.76,0,0,1,15.2,0,6.31,6.31,0,1,0,8.92-8.92A23.39,23.39,0,0,0,139.32,60.29Z"/></g></g></svg>