<?xml version="1.0" encoding="utf-8"?>
<!-- Generator: Adobe Illustrator 22.1.0, SVG Export Plug-In . SVG Version: 6.00 Build 0)  -->
<svg version="1.1" id="Layer_1" xmlns="http://www.w3.org/2000/svg" xmlns:xlink="http://www.w3.org/1999/xlink" x="0px" y="0px"
	 viewBox="0 0 47.5 64.8" style="enable-background:new 0 0 47.5 64.8;" xml:space="preserve">
<style type="text/css">
	.st0{fill:#FFFFFF;stroke:#FFFFFF;stroke-miterlimit:10;}
</style>
<path class="st0" d="M2.5,64.3c-0.4,0-0.7-0.1-1-0.3c-0.6-0.4-1-1-1-1.7V6.7c0-0.4,0.1-0.9,0.2-1.3l0,0C0.8,4.8,1,4.3,1.2,3.8l0,0
	c0.2-0.5,0.5-0.9,0.8-1.3c0.5-0.5,1-1,1.7-1.3l0,0C4.3,0.9,5,0.7,5.6,0.6l0,0l0.7-0.1h35.5c0.6,0.1,1.3,0.3,1.8,0.6l0,0
	c0.6,0.3,1.2,0.8,1.7,1.3c0.3,0.4,0.6,0.8,0.8,1.2l0,0c0.3,0.5,0.4,1,0.6,1.5l0,0C46.9,5.6,47,6.1,47,6.5v55.1
	c-0.1,1.1-0.9,1.9-2,1.9c-0.3,0-0.5-0.1-0.8-0.2l-20-11.2L3.4,64C3.1,64.2,2.8,64.2,2.5,64.3z M4.4,40.9v17.9l18.8-10.8
	c0.6-0.3,1.3-0.3,1.9,0l18,10.1V6.7c0-0.2,0-0.3-0.1-0.5c0-0.2-0.1-0.4-0.1-0.6c-0.1-0.2-0.2-0.3-0.3-0.4c-0.2-0.2-0.4-0.4-0.6-0.5
	c-0.2-0.1-0.4-0.2-0.6-0.2H6.2C6,4.6,5.8,4.6,5.6,4.7C5.4,4.9,5.2,5,5,5.2C4.9,5.4,4.8,5.5,4.7,5.7C4.6,5.8,4.6,6,4.5,6.2
	c0,0.2,0,0.3,0,0.5L4.4,40.9L4.4,40.9z"/>
<path class="st0" d="M30.7,39c-0.8,0-1.6-0.3-2.2-0.8l-4.7-3.4L19,38.3c-1.6,1.2-3.8,0.8-4.9-0.7c0,0,0-0.1-0.1-0.1
	c-0.6-0.9-0.8-2.1-0.5-3.2l1.9-5.7l-4.8-3.6c-0.7-0.6-1.2-1.4-1.4-2.3c-0.3-2,1-3.8,3-4.1c0.2,0,0.5,0,0.8,0h5.7l1.8-5.8
	c0.5-1.5,1.8-2.5,3.4-2.5c0.4,0,0.7,0.1,1.1,0.2c1.1,0.4,2,1.2,2.3,2.3l1.8,5.7h6c2,0.1,3.5,1.8,3.4,3.8c-0.1,1-0.6,2-1.4,2.6
	l-4.8,3.5l1.8,5.8c0.6,1.9-0.4,3.9-2.3,4.5C31.4,38.9,31,38.9,30.7,39L30.7,39z M23.8,29.8l6.2,4.6L27.6,27l6.2-4.6h-7.6L23.8,15
	l-2.4,7.4h-7.7L20,27l-2.4,7.4L23.8,29.8z"/>
</svg>
