<svg xmlns="http://www.w3.org/2000/svg" viewBox="0 0 244.4 58.87"><defs><style>.cls-1{fill:#fff;}</style></defs><title>logo-white</title><g id="Layer_2" data-name="Layer 2"><g id="Layer_1-2" data-name="Layer 1"><path class="cls-1" d="M45.37,22.44,30.08,18.82a1.24,1.24,0,0,0-1.49.92L24.21,38.21a1.24,1.24,0,0,0,.92,1.5l7.75,1.83a19,19,0,0,1-2.79,5.78c-1.32,1.76-3.32,3.75-8.13,5.13a1.22,1.22,0,0,0-.77.65,1.21,1.21,0,0,0,0,1l1.57,4a1.25,1.25,0,0,0,1.16.78.82.82,0,0,0,.22,0,21.19,21.19,0,0,0,12-6.14c3-3.13,5.14-7.66,6.52-13.46l3.62-15.29a1.24,1.24,0,0,0-.92-1.5"/><path class="cls-1" d="M24.31,17.34,9,13.72a1.23,1.23,0,0,0-1.49.92L3.15,33.11a1.24,1.24,0,0,0,.92,1.49l7.75,1.84A19.18,19.18,0,0,1,9,42.21C7.71,44,5.71,46,.9,47.34A1.25,1.25,0,0,0,.13,48a1.23,1.23,0,0,0,0,1l1.57,4a1.25,1.25,0,0,0,1.16.78l.22,0a21.31,21.31,0,0,0,12.05-6.14c2.95-3.14,5.14-7.67,6.52-13.47l3.62-15.28a1.24,1.24,0,0,0-.92-1.5"/><path class="cls-1" d="M57.13,54.65a47.36,47.36,0,0,0-12-14.44l-.1.42a36.82,36.82,0,0,1-3,8.36,36.6,36.6,0,0,1,8.75,9.19,1.51,1.51,0,0,0,2,.51l3.7-2a1.52,1.52,0,0,0,.62-2"/><path class="cls-1" d="M49.11,12.11a7,7,0,1,1-7-7,7,7,0,0,1,7,7"/><path class="cls-1" d="M28,7a7,7,0,1,1-7-7,7,7,0,0,1,7,7"/><path class="cls-1" d="M85.46,26.76c-1.27,5.87-2.35,9.76-5,14.36a13.24,13.24,0,0,1-2.72.25A12.89,12.89,0,0,1,75,41.12a26.67,26.67,0,0,1-1.76-3.39,20.86,20.86,0,0,1-1.2,3.39,13.53,13.53,0,0,1-2.75.25,12.89,12.89,0,0,1-2.69-.25c-3.15-4.6-4.2-8.67-5.25-14.36a18.51,18.51,0,0,1,3.89-.43c.65,0,1.67.06,2.26.12a63.11,63.11,0,0,0,1.94,10,3.27,3.27,0,0,1,.19.87,4.35,4.35,0,0,1,.18-.9,35.49,35.49,0,0,0,1.24-5.25,42.83,42.83,0,0,1-1-4.45,18.1,18.1,0,0,1,3.83-.43c.62,0,1.36.06,1.92.12a93.94,93.94,0,0,0,1.66,10,5.42,5.42,0,0,1,.19,1.08,6.26,6.26,0,0,1,.21-1.08,90.08,90.08,0,0,0,1.7-10c.65-.06,1.61-.12,2.38-.12a14.46,14.46,0,0,1,3.46.43"/><path class="cls-1" d="M96.91,33.8c0-2.06-.92-3.36-2.68-3.36s-2.72,1.3-2.72,3.36,1,3.34,2.72,3.34,2.68-1.3,2.68-3.34m-11,0c0-4.91,3.49-7.9,8.28-7.9s8.24,2.9,8.24,7.9S99,41.68,94.23,41.68,86,38.87,86,33.8"/><path class="cls-1" d="M114.84,26.33a8.23,8.23,0,0,1-1.6,4.79,4.38,4.38,0,0,0-1.36-.19,5,5,0,0,0-1.83.31v9.88a17.61,17.61,0,0,1-5.55,0V28.31a10,10,0,0,1,6.82-2.38,11.51,11.51,0,0,1,3.52.4"/><path class="cls-1" d="M125.34,36.86v-6a3.81,3.81,0,0,0-1.48-.25,3.2,3.2,0,0,0-.06,6.4,6.19,6.19,0,0,0,1.54-.19m5.56-16v19.4a16.87,16.87,0,0,1-6.85,1.45c-5.81,0-9-2.78-9-7.81,0-4.85,3.71-7.88,8.37-7.88a10.47,10.47,0,0,1,1.88.16V20.83a17.44,17.44,0,0,1,2.78-.21,17.26,17.26,0,0,1,2.78.21"/><path class="cls-1" d="M143.91,33.8c0-2.06-.93-3.36-2.69-3.36s-2.72,1.3-2.72,3.36,1,3.34,2.72,3.34,2.69-1.3,2.69-3.34m-11,0c0-4.91,3.49-7.9,8.28-7.9s8.25,2.9,8.25,7.9-3.43,7.88-8.25,7.88-8.28-2.81-8.28-7.88"/><path class="cls-1" d="M163.59,21.39a5.92,5.92,0,0,1-2,3.92,3.28,3.28,0,0,0-1.6-.37c-1.21,0-1.73.56-1.73,1.76v.09h3a10.3,10.3,0,0,1,.25,2.29,9.94,9.94,0,0,1-.25,2.25h-3v9.79a15.13,15.13,0,0,1-2.72.22,17.57,17.57,0,0,1-2.84-.22V31.33h-1.85a9.16,9.16,0,0,1-.22-2.22,11.07,11.07,0,0,1,.22-2.32h1.88c.31-4.13,2.81-6.3,6.76-6.3a8.5,8.5,0,0,1,4.08.9"/><path class="cls-1" d="M165.12,22.87a18.64,18.64,0,0,1,2.84-.21,16.12,16.12,0,0,1,2.72.21V26.7h4.81a10.22,10.22,0,0,1,.25,2.19,11.72,11.72,0,0,1-.25,2.38h-4.81v3.86c0,1.24.55,1.79,1.79,1.79a2.46,2.46,0,0,0,1.73-.77,5.66,5.66,0,0,1,2.25,3.8,7.73,7.73,0,0,1-5.06,1.67c-3.55,0-6.27-1.45-6.27-5.07Z"/><path class="cls-1" d="M188.37,26.33a8.24,8.24,0,0,1-1.61,4.79,4.3,4.3,0,0,0-1.36-.19,4.94,4.94,0,0,0-1.82.31v9.88a17.67,17.67,0,0,1-5.56,0V28.31a10.09,10.09,0,0,1,6.83-2.38,11.51,11.51,0,0,1,3.52.4"/><path class="cls-1" d="M196.74,38a7.55,7.55,0,0,0,1.57-.21V35.5a8.73,8.73,0,0,0-1.85-.18c-1.2,0-1.88.43-1.88,1.26s.74,1.42,2.16,1.42m7.07-5.25v7.42a21.46,21.46,0,0,1-7.94,1.48c-4.07,0-6.82-1.42-6.82-4.85,0-3.15,2.69-4.69,6.58-4.63a13.16,13.16,0,0,1,2.68.31v-.4c0-.84-.61-1.61-2.59-1.61a7,7,0,0,0-3.95,1.23,4.72,4.72,0,0,1-2.26-3.49,10.59,10.59,0,0,1,6.7-2.22c4.64,0,7.6,2,7.6,6.76"/><path class="cls-1" d="M221.05,26.76c-1.36,5.87-2.44,9.76-5.38,14.36a13.76,13.76,0,0,1-2.78.25,14,14,0,0,1-2.78-.25c-3.15-4.6-4.35-8.67-5.43-14.36a20,20,0,0,1,4-.43c.65,0,1.45.06,2,.12a65.15,65.15,0,0,0,2,9.36,8.64,8.64,0,0,1,.21,1.08,5.37,5.37,0,0,1,.19-1.08,65.52,65.52,0,0,0,2-9.36c.65-.06,1.45-.12,2.16-.12a16.81,16.81,0,0,1,3.74.43"/><path class="cls-1" d="M231.38,32.26a2,2,0,0,0-2-2.19,2.23,2.23,0,0,0-2.35,2.19Zm5.13.59a13,13,0,0,1-.16,2.28h-9.26c.25,1.67,1.14,2.23,3.09,2.23a8.32,8.32,0,0,0,4.35-1.49,5.52,5.52,0,0,1,1.79,3.77,10.89,10.89,0,0,1-6.82,2c-4.67,0-8.06-2.72-8.06-7.75A7.63,7.63,0,0,1,229.37,26c4.3,0,7.17,2.63,7.14,6.86"/><path class="cls-1" d="M238.78,41.12V20.93a15.4,15.4,0,0,1,2.75-.22,17.93,17.93,0,0,1,2.87.22V41.12a15.47,15.47,0,0,1-2.75.22,17.76,17.76,0,0,1-2.87-.22"/></g></g></svg>