<svg id="Layer_1" data-name="Layer 1" xmlns="http://www.w3.org/2000/svg" viewBox="0 0 51.83 51.65"><title>morefrombloggers</title><path d="M16.16,1.23H27.58c.49.06,1,.09,1.45.17A17,17,0,0,1,35.5,3.81a18.77,18.77,0,0,1,4.72,4.26,18,18,0,0,1,3.54,7.78c.16.84.21,1.71.3,2.56.37,0,.73.06,1.08.13a10,10,0,0,1,4.16,1.68,6,6,0,0,1,2.5,4.41c.11,1.19.09,2.39.09,3.59,0,2.65-.06,5.3-.06,8a21.64,21.64,0,0,1-.44,4.54,16.06,16.06,0,0,1-2.27,5.74,13.89,13.89,0,0,1-4.29,4.14,15.18,15.18,0,0,1-8,2.28c-3.81,0-7.61-.05-11.42-.07-2.68,0-5.36,0-8,0-.7,0-1.41,0-2.11-.09a16.66,16.66,0,0,1-7.13-2.41,17.15,17.15,0,0,1-5.54-5.54A17.39,17.39,0,0,1,.33,38.84C.2,38.23.15,37.59.06,37V17.5c.06-.44.1-.88.18-1.32A17.94,17.94,0,0,1,3,9,17.74,17.74,0,0,1,9.3,3.24a16.51,16.51,0,0,1,5-1.75C14.94,1.38,15.55,1.31,16.16,1.23ZM46.88,31.72h-.09V25.36a1.15,1.15,0,0,0-.51-1.09,5.9,5.9,0,0,0-1.78-.7,17.08,17.08,0,0,0-2.68-.07A2.54,2.54,0,0,1,39,20.75a28.91,28.91,0,0,0-.24-4.17,11.84,11.84,0,0,0-2.46-5.36,12,12,0,0,0-9.64-4.94c-3.17,0-6.34,0-9.52,0a11.41,11.41,0,0,0-7,2.35A12.33,12.33,0,0,0,6.9,12.3a11.87,11.87,0,0,0-1.8,6c0,5.87,0,11.74,0,17.61a11.52,11.52,0,0,0,3.66,8.57A11.55,11.55,0,0,0,17,47.78l10.72.07q4.11,0,8.22,0a15.34,15.34,0,0,0,2.54-.15,9.24,9.24,0,0,0,6-3.41,10.9,10.9,0,0,0,2.23-6.16C46.82,36,46.82,33.85,46.88,31.72Z" transform="translate(-0.06 -1.23)"/><path d="M25.29,41.22H17.46a5.48,5.48,0,0,1-.62-10.93c.52,0,1-.07,1.56-.07H32.89a5.85,5.85,0,0,1,3,.8,5.36,5.36,0,0,1,2.42,3.09,5.29,5.29,0,0,1-1.51,5.65,5.15,5.15,0,0,1-3.6,1.45C30.6,41.23,27.94,41.22,25.29,41.22Zm0-5h7.52c.13,0,.28,0,.38,0s.39-.24.39-.37a.91.91,0,0,0-.32-.48c-.07-.06-.22,0-.34,0H17.71a1,1,0,0,0-.46.08c-.13.08-.28.27-.26.38a.69.69,0,0,0,.31.41.83.83,0,0,0,.42,0Z" transform="translate(-0.06 -1.23)"/><path d="M21.81,25.46c-1.5,0-3,0-4.5,0a5.29,5.29,0,0,1-4-2,5.54,5.54,0,0,1,2.66-9,8.77,8.77,0,0,1,2-.26c2.67,0,5.34-.05,8,0A5.6,5.6,0,0,1,31,17a5.7,5.7,0,0,1-1.28,7.19,5.88,5.88,0,0,1-3.92,1.34c-1.31,0-2.62,0-3.94,0Zm0-5h3.94c.59,0,.92-.25.92-.67s-.29-.53-.89-.53h-8a1.63,1.63,0,0,0-.38,0,.53.53,0,0,0-.28,1,1,1,0,0,0,.59.2C19.12,20.46,20.48,20.45,21.83,20.45Z" transform="translate(-0.06 -1.23)"/></svg>