<?xml version="1.0" encoding="utf-8"?>
<!-- Generator: Adobe Illustrator 22.1.0, SVG Export Plug-In . SVG Version: 6.00 Build 0)  -->
<svg version="1.1" id="Layer_1" xmlns="http://www.w3.org/2000/svg" xmlns:xlink="http://www.w3.org/1999/xlink" x="0px" y="0px"
	 viewBox="0 0 51.8 54" style="enable-background:new 0 0 51.8 54;" xml:space="preserve">
<style type="text/css">
	.st0{fill:#FFFFFF;}
</style>
<path class="st0" d="M16.2,1.2c3.8,0,7.6,0,11.4,0c0.5,0.1,1,0.1,1.4,0.2c2.3,0.4,4.5,1.1,6.5,2.4c1.8,1.2,3.4,2.6,4.7,4.3
	c1.8,2.3,3,4.9,3.5,7.8c0.2,0.8,0.2,1.7,0.3,2.6c0.4,0,0.7,0.1,1.1,0.1c1.5,0.3,2.9,0.8,4.2,1.7c1.5,1.1,2.3,2.6,2.5,4.4
	c0.1,1.2,0.1,2.4,0.1,3.6c0,2.7-0.1,5.3-0.1,8c0,1.5-0.1,3-0.4,4.5c-0.4,2-1.1,4-2.3,5.7c-1.1,1.7-2.5,3.1-4.3,4.1
	c-2.5,1.5-5.1,2.3-8,2.3c-3.8,0-7.6,0-11.4-0.1c-2.7,0-5.4,0-8,0c-0.7,0-1.4,0-2.1-0.1c-2.6-0.3-4.9-1-7.1-2.4
	c-2.3-1.4-4.1-3.3-5.5-5.5c-1.1-1.8-1.8-3.8-2.3-5.9c-0.1-0.6-0.2-1.2-0.3-1.9c0-6.5,0-13,0-19.5c0.1-0.4,0.1-0.9,0.2-1.3
	c0.4-2.6,1.3-5,2.8-7.1c1.6-2.4,3.7-4.4,6.3-5.8c1.6-0.9,3.3-1.4,5-1.7C14.9,1.4,15.6,1.3,16.2,1.2z M46.9,31.7
	C46.8,31.7,46.8,31.7,46.9,31.7c-0.1-2.1-0.1-4.2-0.1-6.4c0-0.4-0.1-0.9-0.5-1.1c-0.6-0.3-1.2-0.6-1.8-0.7c-0.9-0.1-1.8-0.1-2.7-0.1
	c-1.8,0-2.8-1-2.8-2.7c0-1.4,0-2.8-0.2-4.2c-0.3-2-1.2-3.8-2.5-5.4c-2.5-3.1-5.6-4.9-9.6-4.9c-3.2,0-6.3,0-9.5,0
	c-2.6,0-4.9,0.8-7,2.3c-1.3,1-2.4,2.2-3.3,3.7c-1.1,1.8-1.8,3.8-1.8,6c0,5.9,0,11.7,0,17.6c0,3.4,1.3,6.2,3.7,8.6
	c2.3,2.2,5,3.3,8.2,3.3c3.6,0,7.1,0.1,10.7,0.1c2.7,0,5.5,0,8.2,0c0.8,0,1.7,0,2.5-0.2c2.4-0.4,4.5-1.4,6-3.4
	c1.4-1.8,2.1-3.9,2.2-6.2C46.8,36,46.8,33.9,46.9,31.7z"/>
<path class="st0" d="M25.3,41.2c-2.6,0-5.2,0-7.8,0c-2.8,0-5-2-5.5-4.7c-0.5-3,1.8-5.9,4.9-6.2c0.5,0,1-0.1,1.6-0.1
	c4.8,0,9.7,0,14.5,0c1.1,0,2.1,0.2,3.1,0.8c1.2,0.7,2,1.7,2.4,3.1c0.6,2.2,0.1,4.1-1.5,5.6c-1,0.9-2.2,1.4-3.6,1.5
	C30.6,41.2,27.9,41.2,25.3,41.2z M25.2,36.2c2.5,0,5,0,7.5,0c0.1,0,0.3,0,0.4,0c0.2-0.1,0.4-0.2,0.4-0.4c0-0.2-0.2-0.4-0.3-0.5
	c-0.1-0.1-0.2,0-0.3,0c-5.1,0-10.1,0-15.2,0c-0.2,0-0.3,0-0.5,0.1c-0.1,0.1-0.3,0.3-0.3,0.4c0,0.2,0.2,0.3,0.3,0.4
	c0.1,0.1,0.3,0,0.4,0C20.2,36.2,22.7,36.2,25.2,36.2z"/>
<path class="st0" d="M21.8,25.5c-1.5,0-3,0-4.5,0c-1.7,0-3-0.8-4-2c-0.9-1.1-1.4-2.3-1.4-3.8c0-2.4,1.7-4.6,4-5.2
	c0.7-0.2,1.4-0.3,2-0.3c2.7,0,5.3,0,8,0c2.1,0,3.8,0.9,4.9,2.7c1.4,2.2,0.8,5.6-1.3,7.2c-1.2,0.9-2.4,1.4-3.9,1.3
	C24.4,25.4,23.1,25.5,21.8,25.5C21.8,25.5,21.8,25.5,21.8,25.5z M21.8,20.4c1.3,0,2.6,0,3.9,0c0.6,0,0.9-0.2,0.9-0.7
	c0-0.4-0.3-0.5-0.9-0.5c-2.7,0-5.3,0-8,0c-0.1,0-0.3,0-0.4,0c-0.5,0.1-0.7,0.6-0.3,1c0.1,0.1,0.4,0.2,0.6,0.2
	C19.1,20.5,20.5,20.4,21.8,20.4z"/>
</svg>
