<svg xmlns="http://www.w3.org/2000/svg" viewBox="0 0 76.77 64.42"><defs><style>.cls-1{opacity:0.32;}.cls-2{fill:#a967aa;}.cls-3{fill:#133561;stroke:#133561;stroke-miterlimit:10;stroke-width:0.2px;}</style></defs><title>Asset 6</title><g id="Layer_2" data-name="Layer 2"><g id="Layer_1-2" data-name="Layer 1"><g class="cls-1"><circle class="cls-2" cx="49.56" cy="27.21" r="27.21"/></g><path class="cls-3" d="M9.77,36.39c-.3-7.86,5.38-13.94,12.37-14.24a13.14,13.14,0,0,1,9.52,22.73A8.65,8.65,0,0,0,29,50.21a1.3,1.3,0,0,1-1.14,1.29q-5,1.24-10,2.54c-.62.16-1.24.18-1.4-.52s.45-.94,1-1.09c3-.74,6.08-1.51,9.14-2.22a1,1,0,0,0,.88-1,9.92,9.92,0,0,1,3.09-5.66A11.49,11.49,0,0,0,15.26,26.52a11.75,11.75,0,0,0-.37,17.2,11.67,11.67,0,0,1,3.41,7.17c.07.57-.11,1.1-.75,1.06a1.17,1.17,0,0,1-.78-.78A12.85,12.85,0,0,0,13.08,44,11.77,11.77,0,0,1,9.77,36.39Z"/><path class="cls-3" d="M22.77,40a18.67,18.67,0,0,1,2.5-.9c1.19-.27,1.67.35,1.22,1.49a22.47,22.47,0,0,0-1.68,8.06,1.34,1.34,0,0,1-.71,1.06c-.72.15-.91-.52-.84-1.07.31-2.19.68-4.37,1-6.56a2.09,2.09,0,0,0,.06-.9,11.38,11.38,0,0,0-1,.73c-.78.72-1.15.69-1.78-.13a2.5,2.5,0,0,0-1-.77c0,.19.09.39.12.59.37,2.21.75,4.43,1.11,6.65,0,.23.09.54,0,.69a5.4,5.4,0,0,1-.85.8c-.22-.27-.6-.52-.64-.83-.29-1.82-.43-3.67-.76-5.49a20.17,20.17,0,0,0-1-3c-.37-1,0-1.57,1-1.39A26.5,26.5,0,0,1,22.77,40Z"/><path class="cls-3" d="M28.54,56.85c.17.36.49.74.45,1.07a1.31,1.31,0,0,1-.72.92c-1.28.41-2.6.69-3.9,1L18.3,61.37a1.74,1.74,0,0,1-.88.12,3.39,3.39,0,0,1-.86-.63c.21-.28.38-.73.66-.81,2-.57,4-1.07,6-1.59l4.2-1.06.68-.18Z"/><path class="cls-3" d="M17.25,57.82c-.15-.15-.64-.41-.63-.64a1.18,1.18,0,0,1,.63-.92q5.28-1.4,10.59-2.63c.34-.08.78.29,1.17.46-.24.34-.43.92-.74,1-3.52.93-7.06,1.79-10.59,2.66C17.62,57.77,17.55,57.77,17.25,57.82Z"/><path class="cls-3" d="M36,44.15a7.87,7.87,0,0,1,.76.49c1.47,1.23,3,2.45,4.39,3.74.28.27.28.85.42,1.28-.48,0-1.11.17-1.42-.07-1.52-1.17-3-2.43-4.41-3.72a1.62,1.62,0,0,1-.35-1.12C35.34,44.56,35.72,44.36,36,44.15Z"/><path class="cls-3" d="M22.08,64.31a18.07,18.07,0,0,1-2.47-1.06,1.37,1.37,0,0,1-.5-1.21c.23-.64.85-.39,1.28-.12a4.06,4.06,0,0,0,5-.2c.23-.17.74,0,1.11.07-.08.38,0,.91-.28,1.12A6.07,6.07,0,0,1,22.08,64.31Z"/><path class="cls-3" d="M9.79,45.08a5.94,5.94,0,0,1-.75,1c-1.24,1.08-2.5,2.14-3.76,3.21-.46.39-1,.75-1.48.14s0-1,.45-1.42c1.33-1.14,2.65-2.29,4-3.39a1.42,1.42,0,0,1,1-.24C9.43,44.4,9.57,44.78,9.79,45.08Z"/><path class="cls-3" d="M41.71,34.18c-.9,0-1.82.06-2.72,0-.3,0-.56-.41-.84-.64.25-.3.5-.85.76-.86q2.88-.1,5.76,0c.27,0,.53.49.79.76-.27.25-.52.69-.82.72-1,.09-2,0-2.92,0Z"/><path class="cls-3" d="M39,20.36a5.91,5.91,0,0,1-.7.93c-1.16,1-2.31,2.06-3.54,3a1.45,1.45,0,0,1-1.37.14c-.59-.47-.06-.94.35-1.3C34.94,22,36.14,21,37.38,19.94a1.37,1.37,0,0,1,1-.22C38.57,19.76,38.74,20.1,39,20.36Z"/><path class="cls-3" d="M3.57,34.19a21,21,0,0,1-2.51,0c-.33,0-.61-.42-.91-.65.25-.3.5-.83.76-.84,1.81-.08,3.63-.08,5.44,0,.27,0,.53.51.79.78-.28.25-.54.67-.85.71-.9.09-1.81,0-2.72,0Z"/><path class="cls-3" d="M22,16.65a19.52,19.52,0,0,1,0-2.42c0-.34.44-.63.68-1,.28.28.8.56.82.86.07,1.71.07,3.43,0,5.15,0,.29-.53.56-.82.84-.23-.31-.63-.61-.67-.95A23.67,23.67,0,0,1,22,16.65Z"/><path class="cls-3" d="M11.9,23.86a.76.76,0,0,1-1.26.67c-1.37-1.07-2.69-2.21-4-3.4-.19-.18-.14-.83,0-1.12s.8-.18,1,0c1.3,1,2.55,2.17,3.8,3.29A2.07,2.07,0,0,1,11.9,23.86Z"/></g></g></svg>