<svg xmlns="http://www.w3.org/2000/svg" viewBox="0 0 75.15 61.11"><defs><style>.cls-1{fill:#133561;}.cls-2{opacity:0.32;}.cls-3{fill:#a967aa;}</style></defs><title>Asset 1</title><g id="Layer_2" data-name="Layer 2"><g id="Layer_1-2" data-name="Layer 1"><path class="cls-1" d="M44.1,24.69a.68.68,0,0,0-.66,0l-.72.36a5.32,5.32,0,0,0,.15-1.11,6.34,6.34,0,0,0-12.68,0A4.84,4.84,0,0,0,30.33,25l-.64-.32a.7.7,0,0,0-.6,0l-6.88,3.41-6.88-3.41a.7.7,0,0,0-.6,0L7.86,28.06,1,24.65a.68.68,0,0,0-.66,0,.67.67,0,0,0-.32.57V56.88a.68.68,0,0,0,.38.61L7.56,61a.64.64,0,0,0,.6,0L15,57.64,21.91,61a.68.68,0,0,0,.6,0l6.88-3.4L36.26,61a.66.66,0,0,0,.61,0L44,57.49a.66.66,0,0,0,.38-.61V25.26A.67.67,0,0,0,44.1,24.69ZM31.55,23.9a5,5,0,1,1,10,0,6.43,6.43,0,0,1-.44,1.93c-.21.59-.48,1.23-.8,1.91-.4.87-.87,1.79-1.35,2.69-.05.08-.09.16-.13.24-.18.32-.36.65-.54,1,0,.08-.09.16-.13.25-.39.68-.77,1.33-1.12,1.91l-.47.77-.47-.77c-.36-.6-.75-1.26-1.15-2l-.13-.24c-.18-.31-.36-.64-.54-1,0-.08-.08-.16-.13-.24-.48-.9-1-1.82-1.35-2.69-.31-.68-.58-1.32-.79-1.91A6.29,6.29,0,0,1,31.55,23.9Zm8.76,6.89v3.29l-2.73,1.35c.62-1,1.67-2.73,2.68-4.62ZM28.86,41,22.68,44V40.57l6.18-3.06ZM21.74,44l-6.33-3.13V37.44l6.33,3.13Zm-7.27-3L8.33,44V40.57l6.14-3ZM8.33,44.74l6.14-3v3.47l-6.14,3Zm7.08-3.13,6.33,3.13v3.47l-6.33-3.13Zm7.27,3.13,6.18-3.06v3.47l-6.18,3.06Zm7.12-3.11,6.26,3.09v3.47L29.8,45.1Zm0-.7V37.46l6.26,3.09V44Zm6.26-4.54v3.47l-6.26-3.1V33.29Zm-7.2.42-6.18,3.06V36.4l6.18-3.06Zm-7.12,3.06-6.33-3.13V33.27l6.33,3.13Zm-7.27-3-6.14,3V36.4l6.14-3Zm-7.08,3L4.11,38.25V34.78L7.39,36.4Zm0,.7V44L4.11,42.42V39Zm0,4.17v3.47L4.11,46.59V43.12ZM4.11,47.29l3.28,1.62v3.47L4.11,50.76Zm4.22,1.62,6.14-3v3.47l-6.14,3Zm7.08-3.13,6.33,3.13v3.47l-6.33-3.13Zm7.27,3.13,6.18-3.06v3.47l-6.18,3.06ZM29.8,45.8l6.26,3.09v3.47L29.8,49.27Zm0-13.21V29.3l3,1.46c1,1.88,2,3.61,2.67,4.62Zm-.94,0L22.68,35.7V32.41l6.18-3.06Zm-7.12,3.07-6.33-3.14V29.28l6.33,3.13Zm-7.27-3.05-6.14,3V32.41l6.14-3Zm-7.08,3L4.11,34.08V30.79l3.28,1.62ZM4.11,51.46l3.28,1.62v3.29L4.11,54.75Zm4.22,1.62,6.14-3v3.29l-6.14,3ZM15.41,50l6.33,3.13v3.29l-6.33-3.13Zm7.27,3.13L28.86,50v3.29l-6.18,3.06ZM29.8,50l6.26,3.1v3.3l-6.26-3.1ZM37,53.1l3.31-1.64v3.29L37,56.39Zm3.31-2.34L37,52.4V48.93l3.31-1.64Zm0-4.17L37,48.23V44.76l3.31-1.64Zm0-4.17L37,44.06V40.59L40.31,39Zm0-4.17L37,39.89V36.42l3.31-1.64ZM30.89,26.76c.32.83.72,1.71,1.16,2.6L29.8,28.25v-2Zm-2,1.54-6.18,3.06v-2l6.18-3.06Zm-7.12,3.06-6.33-3.13v-2l6.33,3.13Zm-7.27-3-6.14,3v-2l6.14-3Zm-13.11-2,6,3v2L3.85,29.61a.5.5,0,0,0-.46,0,.47.47,0,0,0-.22.4V55a.48.48,0,0,0,.26.43l4,2v2l-6-3Zm7,31.06,6.14-3v2l-6.14,3Zm7.08-3.13,6.33,3.13v2l-6.33-3.13Zm7.27,3.13,6.18-3.06v2l-6.18,3.06Zm7.12-3.11,6.26,3.09v2l-6.26-3.1Zm13.26,2.15-6.06,3v-2l4-2a.48.48,0,0,0,.26-.43V30a.47.47,0,0,0-.22-.4l-.13-.05c.47-.95.91-1.89,1.25-2.77l.91-.45Z"/><path class="cls-1" d="M36.53,27.33A3.43,3.43,0,1,0,33.1,23.9,3.43,3.43,0,0,0,36.53,27.33Zm0-5.92A2.49,2.49,0,1,1,34,23.9,2.5,2.5,0,0,1,36.53,21.41Z"/><g class="cls-2"><circle class="cls-3" cx="47.95" cy="27.21" r="27.21"/></g></g></g></svg>