<svg xmlns="http://www.w3.org/2000/svg" viewBox="0 0 76.67 66.14"><defs><style>.cls-1{opacity:0.32;}.cls-2{fill:#a967aa;}.cls-3{fill:#133561;stroke:#133561;stroke-miterlimit:10;stroke-width:0.1px;}</style></defs><title>Asset 5</title><g id="Layer_2" data-name="Layer 2"><g id="Layer_1-2" data-name="Layer 1"><g class="cls-1"><circle class="cls-2" cx="49.47" cy="27.21" r="27.21"/></g><path class="cls-3" d="M.05,31.67V60.44A2.93,2.93,0,0,0,3,63.37h20.2v2.09a.62.62,0,0,0,.36.57.63.63,0,0,0,.68-.09l.74-.63.73.63a.65.65,0,0,0,.41.15.66.66,0,0,0,.27-.06.63.63,0,0,0,.37-.57V63.37h18.7a2.93,2.93,0,0,0,2.93-2.93V31.67a2.93,2.93,0,0,0-2.93-2.93H26.74v-.19a.64.64,0,0,0-.64-.63H23.81a.63.63,0,0,0-.63.63v.19H3A2.93,2.93,0,0,0,.05,31.67ZM47.1,60.44a1.66,1.66,0,0,1-1.66,1.66H26.74V59.6H43.92a.44.44,0,0,0,.44-.44V32.8a.44.44,0,0,0-.44-.43H26.74V30h18.7a1.66,1.66,0,0,1,1.66,1.66ZM25.47,63.37v.71l-.1-.08a.65.65,0,0,0-.41-.15.61.61,0,0,0-.41.15l-.11.08V29.18h1V63.37Zm-2.29-4.65H4.93V33.24H23.18ZM42.41,33.24h1.07V58.72H42.41Zm-.88,25.48H26.74V33.24H41.53ZM23.18,32.37H4.5a.43.43,0,0,0-.44.43V59.16a.44.44,0,0,0,.44.44H23.18v2.5H3a1.66,1.66,0,0,1-1.66-1.66V31.67A1.66,1.66,0,0,1,3,30h20.2Z"/><path class="cls-3" d="M8.17,43.42h7.05a.44.44,0,0,0,.44-.44V36.06a.44.44,0,0,0-.44-.44h-7a.44.44,0,0,0-.44.44V43A.44.44,0,0,0,8.17,43.42Zm.44-6.92h6.17v6H8.61Z"/><path class="cls-3" d="M14.43,46.44a1.65,1.65,0,0,1-.73-.16,2.34,2.34,0,0,0-1.08-.23,2.28,2.28,0,0,0-1.08.23,1.73,1.73,0,0,1-.74.16,1.7,1.7,0,0,1-.74-.16A2.31,2.31,0,0,0,9,46.05a.44.44,0,0,0-.44.44.44.44,0,0,0,.44.44,1.71,1.71,0,0,1,.74.15,2.34,2.34,0,0,0,1.08.23,2.34,2.34,0,0,0,1.08-.23,1.88,1.88,0,0,1,1.47,0,2.34,2.34,0,0,0,1.08.23,2.31,2.31,0,0,0,1.08-.23,1.9,1.9,0,0,1,1.48,0,2.31,2.31,0,0,0,1.08.23,2.34,2.34,0,0,0,1.08-.23,1.71,1.71,0,0,1,.74-.15.44.44,0,0,0,.43-.44.43.43,0,0,0-.43-.44,2.36,2.36,0,0,0-1.09.23,1.65,1.65,0,0,1-.73.16,1.7,1.7,0,0,1-.74-.16,2.65,2.65,0,0,0-2.16,0A1.7,1.7,0,0,1,14.43,46.44Z"/><path class="cls-3" d="M19.89,49a2.36,2.36,0,0,0-1.09.23,1.66,1.66,0,0,1-.73.15,1.71,1.71,0,0,1-.74-.15,2.65,2.65,0,0,0-2.16,0,1.71,1.71,0,0,1-.74.15,1.66,1.66,0,0,1-.73-.15A2.34,2.34,0,0,0,12.62,49a2.28,2.28,0,0,0-1.08.23,1.75,1.75,0,0,1-.74.15,1.71,1.71,0,0,1-.74-.15A2.31,2.31,0,0,0,9,49a.44.44,0,1,0,0,.87,1.56,1.56,0,0,1,.74.16,2.65,2.65,0,0,0,2.16,0,1.77,1.77,0,0,1,1.47,0,2.48,2.48,0,0,0,1.08.23A2.44,2.44,0,0,0,15.51,50,1.79,1.79,0,0,1,17,50a2.44,2.44,0,0,0,1.08.23A2.48,2.48,0,0,0,19.15,50a1.56,1.56,0,0,1,.74-.16.44.44,0,0,0,0-.87Z"/><path class="cls-3" d="M19.89,51.91a2.36,2.36,0,0,0-1.09.23,1.66,1.66,0,0,1-.73.15,1.71,1.71,0,0,1-.74-.15,2.65,2.65,0,0,0-2.16,0,1.71,1.71,0,0,1-.74.15,1.66,1.66,0,0,1-.73-.15,2.34,2.34,0,0,0-1.08-.23,2.28,2.28,0,0,0-1.08.23,1.75,1.75,0,0,1-.74.15,1.71,1.71,0,0,1-.74-.15A2.31,2.31,0,0,0,9,51.91a.44.44,0,1,0,0,.87,1.56,1.56,0,0,1,.74.16,2.65,2.65,0,0,0,2.16,0,1.77,1.77,0,0,1,1.47,0,2.48,2.48,0,0,0,1.08.23,2.44,2.44,0,0,0,1.08-.23,1.79,1.79,0,0,1,1.48,0,2.44,2.44,0,0,0,1.08.23,2.48,2.48,0,0,0,1.08-.23,1.56,1.56,0,0,1,.74-.16.44.44,0,0,0,0-.87Z"/><path class="cls-3" d="M19.89,54.84a2.52,2.52,0,0,0-1.09.22,1.52,1.52,0,0,1-.73.16,1.56,1.56,0,0,1-.74-.16,2.76,2.76,0,0,0-2.16,0,1.56,1.56,0,0,1-.74.16,1.52,1.52,0,0,1-.73-.16,2.51,2.51,0,0,0-1.08-.22,2.43,2.43,0,0,0-1.08.22,1.59,1.59,0,0,1-.74.16,1.56,1.56,0,0,1-.74-.16A2.47,2.47,0,0,0,9,54.84a.44.44,0,1,0,0,.87,1.56,1.56,0,0,1,.74.16,2.65,2.65,0,0,0,2.16,0,1.77,1.77,0,0,1,1.47,0,2.48,2.48,0,0,0,1.08.23,2.44,2.44,0,0,0,1.08-.23,1.79,1.79,0,0,1,1.48,0,2.44,2.44,0,0,0,1.08.23,2.48,2.48,0,0,0,1.08-.23,1.56,1.56,0,0,1,.74-.16.44.44,0,0,0,0-.87Z"/><path class="cls-3" d="M31.52,36.5a1.59,1.59,0,0,1,.74.16,2.44,2.44,0,0,0,1.08.23,2.48,2.48,0,0,0,1.08-.23,1.77,1.77,0,0,1,1.47,0,2.48,2.48,0,0,0,1.08.23,2.44,2.44,0,0,0,1.08-.23,1.56,1.56,0,0,1,.74-.16.44.44,0,0,0,0-.88,2.48,2.48,0,0,0-1.08.23A1.56,1.56,0,0,1,37,36a1.59,1.59,0,0,1-.74-.16,2.41,2.41,0,0,0-1.08-.23,2.48,2.48,0,0,0-1.08.23,1.52,1.52,0,0,1-.73.16,1.56,1.56,0,0,1-.74-.16,2.48,2.48,0,0,0-1.08-.23.44.44,0,0,0-.44.44v0A.44.44,0,0,0,31.52,36.5Z"/><path class="cls-3" d="M27.89,39.43a1.55,1.55,0,0,1,.73.16,2.51,2.51,0,0,0,1.08.22,2.47,2.47,0,0,0,1.08-.22,1.79,1.79,0,0,1,1.48,0,2.47,2.47,0,0,0,1.08.22,2.51,2.51,0,0,0,1.08-.22,1.77,1.77,0,0,1,1.47,0,2.51,2.51,0,0,0,1.08.22,2.47,2.47,0,0,0,1.08-.22,1.56,1.56,0,0,1,.74-.16.44.44,0,0,0,0-.88,2.48,2.48,0,0,0-1.08.23,1.56,1.56,0,0,1-.74.16,1.59,1.59,0,0,1-.74-.16,2.41,2.41,0,0,0-1.08-.23,2.48,2.48,0,0,0-1.08.23,1.52,1.52,0,0,1-.73.16,1.56,1.56,0,0,1-.74-.16,2.65,2.65,0,0,0-2.16,0,1.56,1.56,0,0,1-.74.16,1.52,1.52,0,0,1-.73-.16,2.48,2.48,0,0,0-1.08-.23.44.44,0,1,0,0,.88Z"/><path class="cls-3" d="M27.89,42.36a1.55,1.55,0,0,1,.73.16,2.51,2.51,0,0,0,1.08.22,2.47,2.47,0,0,0,1.08-.22,1.79,1.79,0,0,1,1.48,0,2.47,2.47,0,0,0,1.08.22,2.51,2.51,0,0,0,1.08-.22,1.77,1.77,0,0,1,1.47,0,2.51,2.51,0,0,0,1.08.22,2.47,2.47,0,0,0,1.08-.22,1.56,1.56,0,0,1,.74-.16.44.44,0,0,0,0-.88,2.34,2.34,0,0,0-1.08.23,1.56,1.56,0,0,1-.74.16,1.59,1.59,0,0,1-.74-.16,2.28,2.28,0,0,0-1.08-.23,2.34,2.34,0,0,0-1.08.23,1.52,1.52,0,0,1-.73.16,1.56,1.56,0,0,1-.74-.16,2.65,2.65,0,0,0-2.16,0,1.56,1.56,0,0,1-.74.16,1.52,1.52,0,0,1-.73-.16,2.34,2.34,0,0,0-1.08-.23.44.44,0,1,0,0,.88Z"/><path class="cls-3" d="M27.89,45.29a1.7,1.7,0,0,1,.73.15,2.34,2.34,0,0,0,1.08.23,2.31,2.31,0,0,0,1.08-.23,1.9,1.9,0,0,1,1.48,0,2.31,2.31,0,0,0,1.08.23,2.34,2.34,0,0,0,1.08-.23,1.88,1.88,0,0,1,1.47,0,2.34,2.34,0,0,0,1.08.23,2.31,2.31,0,0,0,1.08-.23,1.71,1.71,0,0,1,.74-.15.44.44,0,0,0,.44-.44.44.44,0,0,0-.44-.44,2.34,2.34,0,0,0-1.08.23,1.71,1.71,0,0,1-.74.15,1.75,1.75,0,0,1-.74-.15,2.28,2.28,0,0,0-1.08-.23,2.34,2.34,0,0,0-1.08.23,1.66,1.66,0,0,1-.73.15,1.71,1.71,0,0,1-.74-.15,2.65,2.65,0,0,0-2.16,0,1.71,1.71,0,0,1-.74.15,1.66,1.66,0,0,1-.73-.15,2.34,2.34,0,0,0-1.08-.23.43.43,0,0,0-.44.44A.44.44,0,0,0,27.89,45.29Z"/><path class="cls-3" d="M27.89,48.2a1.55,1.55,0,0,1,.73.16,2.51,2.51,0,0,0,1.08.22,2.47,2.47,0,0,0,1.08-.22,1.79,1.79,0,0,1,1.48,0,2.47,2.47,0,0,0,1.08.22,2.51,2.51,0,0,0,1.08-.22,1.77,1.77,0,0,1,1.47,0,2.51,2.51,0,0,0,1.08.22,2.47,2.47,0,0,0,1.08-.22,1.56,1.56,0,0,1,.74-.16.44.44,0,0,0,0-.88,2.48,2.48,0,0,0-1.08.23,1.56,1.56,0,0,1-.74.16,1.59,1.59,0,0,1-.74-.16,2.41,2.41,0,0,0-1.08-.23,2.48,2.48,0,0,0-1.08.23,1.52,1.52,0,0,1-.73.16,1.56,1.56,0,0,1-.74-.16,2.65,2.65,0,0,0-2.16,0,1.56,1.56,0,0,1-.74.16,1.52,1.52,0,0,1-.73-.16,2.48,2.48,0,0,0-1.08-.23.44.44,0,0,0,0,.88Z"/><path class="cls-3" d="M27.89,51.13a1.7,1.7,0,0,1,.73.15,2.34,2.34,0,0,0,1.08.23,2.31,2.31,0,0,0,1.08-.23,1.9,1.9,0,0,1,1.48,0,2.31,2.31,0,0,0,1.08.23.44.44,0,0,0,.44-.44.44.44,0,0,0-.44-.44,1.58,1.58,0,0,1-.74-.15,2.65,2.65,0,0,0-2.16,0,1.58,1.58,0,0,1-.74.15,1.53,1.53,0,0,1-.73-.15,2.34,2.34,0,0,0-1.08-.23.43.43,0,0,0-.44.44A.44.44,0,0,0,27.89,51.13Z"/></g></g></svg>