<svg xmlns="http://www.w3.org/2000/svg" viewBox="0 0 76.72 68.18"><defs><style>.cls-1{opacity:0.32;}.cls-2{fill:#a967aa;}.cls-3{fill:#133561;stroke:#133561;stroke-miterlimit:10;stroke-width:0.18px;}</style></defs><title>Asset 3</title><g id="Layer_2" data-name="Layer 2"><g id="Layer_1-2" data-name="Layer 1"><g class="cls-1"><circle class="cls-2" cx="49.51" cy="27.21" r="27.21"/></g><path class="cls-3" d="M2.93,33.33V50.54H.67a.58.58,0,0,0-.58.58V61.47c0,3.4,1,5.5,2.89,6.28a.6.6,0,0,0,.54.34H34.6a.59.59,0,0,0,.53-.34C37.05,67,38,64.87,38,61.47V51.12a.58.58,0,0,0-.58-.58H35.18V33.33a4.77,4.77,0,0,0-2.89-4.39,3.3,3.3,0,0,0,1.2-2.56,3.33,3.33,0,0,0-3.32-3.33H27.28a1.81,1.81,0,0,0-3.22,0H14.27a1.81,1.81,0,0,0-3.22,0H7.81A3.33,3.33,0,0,0,5.73,29,4.78,4.78,0,0,0,2.93,33.33Zm2.72-6.95a2.16,2.16,0,0,1,2.16-2.16h3v4.32h-3A2.16,2.16,0,0,1,5.65,26.38Zm7-3.15a.63.63,0,0,1,.59.41.59.59,0,0,1,.05.23v4.67H12V23.87a.59.59,0,0,1,0-.23A.65.65,0,0,1,12.66,23.23Zm13,0a.63.63,0,0,1,.59.41.59.59,0,0,1,0,.23v4.67H25V23.87a.59.59,0,0,1,0-.23A.65.65,0,0,1,25.67,23.23Zm4.5,1a2.16,2.16,0,0,1,0,4.32H27.48V24.22Zm-6.31,0v4.32h-9.4V24.22Zm-11,5.49H25.31a5.87,5.87,0,0,1,5.86,5.86v.15H7v-.15A5.87,5.87,0,0,1,12.82,29.71Zm24,31.76c0,2.92-.74,4.3-1.67,4.93a2.84,2.84,0,0,1-1.17.46,4.62,4.62,0,0,1-.82.07h-.85V51.7h4.51ZM24.68,48.35v1H23.15V45.71h1.53v2.64Zm-1.53,2.22h1.53V53.5a.77.77,0,0,1-.76.77.78.78,0,0,1-.77-.77Zm2.12-6h-2.7a.58.58,0,0,0-.58.58v2.07H15.71V45.12a.58.58,0,0,0-.58-.58h-2.7a.58.58,0,0,0-.58.58v2A5.88,5.88,0,0,1,7,41.33V36.89H31.17v4.44a5.86,5.86,0,0,1-5.32,5.83v-2A.58.58,0,0,0,25.27,44.54ZM14.54,47.19V49.4H13V45.71h1.52ZM13,50.57h1.52V53.5a.76.76,0,1,1-1.52,0Zm-1.17-2.29V53.5a1.93,1.93,0,0,0,3.86,0V48.35H22V53.5a1.93,1.93,0,1,0,3.86,0V48.33a7,7,0,0,0,5.32-3.13V57.85H7V45.2A7,7,0,0,0,11.85,48.28ZM4.92,66.93a4.62,4.62,0,0,1-.82-.07,2.84,2.84,0,0,1-1.17-.46c-.93-.63-1.67-2-1.67-4.93V51.7H5.77V66.93ZM7,59H31.17v7.91H7ZM30.39,29.71A3.62,3.62,0,0,1,34,33.33V50.54H32.34v-15a7,7,0,0,0-3.16-5.86h1.21Zm-22.67,0H9A7,7,0,0,0,5.8,35.57v15H4.1V33.33A3.62,3.62,0,0,1,7.72,29.71Z"/></g></g></svg>