<svg xmlns="http://www.w3.org/2000/svg" viewBox="0 0 43.6 45.07">
<defs>
<style>
.cls-1{opacity:0.32;}
.cls-2{fill:#a967aa;}
.cls-3{fill:#133561;}
.cls-4{fill:none;stroke:#133561;stroke-linecap:round;stroke-linejoin:round;stroke-width:0.84px;}
</style>
</defs>
<title>banner-img-3</title>
<g id="Layer_2" data-name="Layer 2">
<g id="Layer_1-2" data-name="Layer 1">
<g class="cls-1"><circle class="cls-2" cx="28.01" cy="15.59" r="15.59"/></g>
<path class="cls-3" d="M35,27.07a17.48,17.48,0,0,0-6-12.76,8.85,8.85,0,0,1-.81.65,16.22,16.22,0,0,1,3.34,3.82H25.21a19.85,19.85,0,0,0-.8-2.05c-.31.1-.64.2-1,.28a18.66,18.66,0,0,1,.71,1.77H10.7A17.07,17.07,0,0,1,11.37,17l-1-.29a19.51,19.51,0,0,0-.76,2.08H3.54A16.34,16.34,0,0,1,6.84,15,6.52,6.52,0,0,1,6,14.35,17.49,17.49,0,0,0,0,27.07H0v1H0A17.5,17.5,0,0,0,17,45.05v0h1v0a17.49,17.49,0,0,0,17-17h0v-1ZM3,19.78H9.39a32.2,32.2,0,0,0-.88,7.29H1A16.45,16.45,0,0,1,3,19.78ZM1,28.07H8.51a32.24,32.24,0,0,0,.91,7.3H3A16.31,16.31,0,0,1,1,28.07Zm2.54,8.3H9.69a14.93,14.93,0,0,0,4.22,7.3A16.52,16.52,0,0,1,3.57,36.37ZM17,44c-2.62-.37-4.89-3.33-6.22-7.65H17Zm0-8.65H10.45a31,31,0,0,1-.94-7.3H17Zm0-8.3H9.51a30.7,30.7,0,0,1,.91-7.29H17Zm1-7.29h6.51a28.27,28.27,0,0,1,1,7.29H18Zm0,8.29h7.53a31,31,0,0,1-.94,7.3H18Zm0,8.3h6.3C22.91,40.74,20.61,43.72,18,44Zm3.13,7.3a14.93,14.93,0,0,0,4.22-7.3h6.12A16.52,16.52,0,0,1,21.09,43.67Zm11-8.3H25.58a32.24,32.24,0,0,0,.91-7.3H34A16.31,16.31,0,0,1,32,35.37Zm-5.56-8.3a29.53,29.53,0,0,0-1-7.29H32A16.45,16.45,0,0,1,34,27.07Z"/>
<path class="cls-4" d="M21.85,6.39l-4-.94a.32.32,0,0,0-.39.24l-1.14,4.8a.32.32,0,0,0,.24.39l2,.48a4.79,4.79,0,0,1-.73,1.5,3.59,3.59,0,0,1-2.11,1.34.28.28,0,0,0-.2.17.3.3,0,0,0,0,.26l.41,1a.33.33,0,0,0,.3.2h.06a5.57,5.57,0,0,0,3.13-1.6,7.55,7.55,0,0,0,1.7-3.5l.94-4a.32.32,0,0,0-.24-.39"/>
<path class="cls-4" d="M16.37,5.06l-4-.94a.32.32,0,0,0-.39.24l-1.14,4.8a.32.32,0,0,0,.24.39l2,.48a4.9,4.9,0,0,1-.73,1.5,3.59,3.59,0,0,1-2.11,1.34.28.28,0,0,0-.2.17.3.3,0,0,0,0,.26l.41,1a.32.32,0,0,0,.3.21h.06A5.51,5.51,0,0,0,14,12.93a7.55,7.55,0,0,0,1.7-3.5l.94-4a.33.33,0,0,0-.24-.39"/>
<path class="cls-4" d="M24.91,14.77A12.38,12.38,0,0,0,21.8,11l0,.11A9.43,9.43,0,0,1,21,13.3a9.59,9.59,0,0,1,2.27,2.39.39.39,0,0,0,.52.13l1-.53a.38.38,0,0,0,.16-.52"/>
<path class="cls-4" d="M22.82,3.7A1.82,1.82,0,1,1,21,1.88,1.82,1.82,0,0,1,22.82,3.7"/>
<path class="cls-4" d="M17.34,2.37A1.82,1.82,0,1,1,15.52.55a1.81,1.81,0,0,1,1.82,1.82"/></g></g></svg>