<?xml version="1.0" encoding="utf-8"?>
<!-- Generator: Adobe Illustrator 22.1.0, SVG Export Plug-In . SVG Version: 6.00 Build 0)  -->
<svg version="1.1" id="Isolation_Mode" xmlns="http://www.w3.org/2000/svg" xmlns:xlink="http://www.w3.org/1999/xlink" x="0px"
	 y="0px" viewBox="0 0 506 477.9" style="enable-background:new 0 0 506 477.9;" xml:space="preserve">
<style type="text/css">
	.st0{fill:#676767;}
	.st1{fill:#AA68AA;}
</style>
<g>
	<path class="st0" d="M59.8,357.8h150.3c8,0,14.6-6.5,14.6-14.6c0-8-6.5-14.6-14.6-14.6H59.8c-15.2,0-27.7-12.4-27.7-27.7V91.8
		c0-15.2,12.4-27.7,27.7-27.7c8,0,14.6-6.5,14.6-14.6S67.8,35,59.8,35C28.5,35,3,60.4,3,91.8V301C3,332.3,28.5,357.8,59.8,357.8z"/>
	<path class="st0" d="M358.9,172.1c0,8,6.5,14.6,14.6,14.6c8,0,14.6-6.5,14.6-14.6v-26.9V91.8c0-31.3-25.5-56.8-56.8-56.8h-31.1
		c-2.4-17.6-17.5-31.2-35.7-31.2h-4.6c-18.2,0-33.3,13.6-35.7,31.2h-57.4c-2.4-17.6-17.5-31.2-35.7-31.2h-4.6c-19.9,0-36,16.2-36,36
		v9.8v13.7c0,19.9,16.2,36,36,36h4.6c19.6,0,35.5-15.7,36-35.2h56.7c0.5,19.5,16.4,35.2,36,35.2h4.6c19.6,0,35.5-15.7,36-35.2h30.8
		c15.3,0,27.7,12.4,27.7,27.7v38.9H66c-8,0-14.6,6.5-14.6,14.6c0,8,6.5,14.6,14.6,14.6h293V172.1z M264.5,70.2h-4.6
		c-3.5,0-6.4-2.7-6.8-6.1c0-0.3-0.1-0.6-0.1-0.9V39.8c0-1.9,0.7-3.6,2-4.8c1.3-1.3,3-2.1,5-2.1h4.6c1.9,0,3.7,0.8,5,2.1
		c1.2,1.2,2,2.9,2,4.8v23.5c0,0.3-0.1,0.6-0.1,0.9C270.9,67.5,268,70.2,264.5,70.2z M131.1,70.2h-4.6c-3.5,0-6.4-2.7-6.8-6.1
		c0-0.3-0.1-0.6-0.1-0.9V39.8c0-1.9,0.7-3.6,2-4.8c1.3-1.3,3-2.1,5-2.1h4.6c1.9,0,3.7,0.8,5,2.1c1.2,1.2,2,2.9,2,4.8v23.5
		c0,0.3-0.1,0.6-0.1,0.9C137.5,67.5,134.7,70.2,131.1,70.2z"/>
	<circle class="st0" cx="99.8" cy="206.3" r="21.9"/>
	
		<ellipse transform="matrix(0.9229 -0.385 0.385 0.9229 -64.3659 91.1824)" class="st0" cx="195.5" cy="206.3" rx="21.9" ry="21.9"/>
	<circle class="st0" cx="99.8" cy="282.2" r="21.9"/>
	
		<ellipse transform="matrix(0.9229 -0.385 0.385 0.9229 -93.5734 97.0303)" class="st0" cx="195.5" cy="282.2" rx="21.9" ry="21.9"/>
	<path class="st0" d="M365.5,474.1c75.8,0,137.4-61.7,137.4-137.4c0-75.8-61.7-137.4-137.4-137.4c-75.8,0-137.4,61.7-137.4,137.4
		C228.1,412.5,289.8,474.1,365.5,474.1z M365.5,228.3c59.7,0,108.3,48.6,108.3,108.3c0,59.7-48.6,108.3-108.3,108.3
		c-59.7,0-108.3-48.6-108.3-108.3C257.2,276.9,305.8,228.3,365.5,228.3z"/>
	<circle class="st1" cx="365.5" cy="336.7" r="75.5"/>
</g>
</svg>
