<?xml version="1.0" encoding="utf-8"?>
<!-- Generator: Adobe Illustrator 22.1.0, SVG Export Plug-In . SVG Version: 6.00 Build 0)  -->
<svg version="1.1" id="Layer_1" xmlns="http://www.w3.org/2000/svg" xmlns:xlink="http://www.w3.org/1999/xlink" x="0px" y="0px"
	 viewBox="0 0 52 53.9" style="enable-background:new 0 0 52 53.9;" xml:space="preserve">
<style type="text/css">
	.st0{fill:#FFFFFF;}
</style>
<title>icon-share</title>
<path class="st0" d="M41.5,53.4c-5.2,0-9.5-4-9.9-9.2L15,34.9c-1.4,0.7-2.9,1.1-4.4,1.1h-0.1c-5.5,0-10-4.4-10-9.9
	c0-0.8,0.1-1.7,0.3-2.5c1.1-4.4,5-7.4,9.5-7.5h0.1c1.5,0,2.9,0.4,4.3,1l12-7.1c0.2-5.3,4.5-9.4,9.8-9.5h0.1
	c5.5,0.5,9.6,5.3,9.1,10.8c-0.4,4.8-4.2,8.6-9,9.1h-0.1c-1.5,0-2.9-0.4-4.3-1l-10.9,6.5L37,34.6c1.4-0.7,2.9-1.1,4.4-1.1h0.1
	c5.5,0.5,9.6,5.3,9.2,10.8c-0.4,4.8-4.2,8.7-9,9.1L41.5,53.4z M15,30.6c0.3,0,0.7,0.1,1,0.3l18.6,10.4c0.7,0.4,1,1.1,1,1.8
	c-0.2,3.3,2.3,6.2,5.6,6.4c3.3,0.2,6.2-2.3,6.4-5.6c0.1-1.3-0.2-2.5-0.9-3.6c-1.1-1.8-3-2.9-5.1-2.9c-1.1,0-2.1,0.3-3,0.8l-0.3,0.2
	c-0.6,0.4-1.4,0.5-2.1,0.1L17.4,28.2c-0.7-0.4-1-1.1-1-1.9c0-0.2,0-0.5,0-0.7c-0.1-0.8,0.3-1.5,1-1.9l14-8.3c0.3-0.2,0.6-0.3,1-0.3
	c0.4,0,0.8,0.1,1.1,0.3c2.8,1.8,6.4,1,8.2-1.8c0.6-1,1-2.1,0.9-3.3c0-3.3-2.6-5.9-5.9-6c-1.7,0-3.2,0.7-4.4,1.9
	c-1.1,1.1-1.7,2.6-1.7,4.2c0,0.1,0,0.2,0,0.4c0,0.8-0.3,1.5-1,1.9l-14,8.3c-0.3,0.2-0.6,0.3-1,0.3c-0.4,0-0.8-0.1-1.1-0.3
	c-1.9-1.2-4.3-1.3-6.3-0.1c-2.8,1.7-3.7,5.3-2,8.2c0,0,0,0,0,0c1.1,1.8,3,2.9,5.1,2.9c1.1,0,2.1-0.3,3-0.8l0.3-0.2
	C14.1,30.7,14.6,30.6,15,30.6z"/>
<path class="st0" d="M36.7,1c5.2,0.1,9.4,4.5,9.2,9.7c-0.1,5-4.1,9-9.1,9.2h-0.1c-1.5,0-3-0.3-4.3-1l-11.8,7L37,35.1
	c1.3-0.7,2.9-1.1,4.4-1.1h0.1c5.2,0,9.5,4.2,9.5,9.5c0,3.3-1.8,6.4-4.6,8.1c-1.4,0.8-3,1.3-4.7,1.3h-0.1c-5.1,0-9.2-4-9.5-9L15,34.4
	c-1.3,0.7-2.9,1.1-4.4,1.2h-0.1c-3.3,0-6.4-1.8-8.1-4.6c-2.7-4.5-1.2-10.3,3.3-13c1.4-0.8,3-1.3,4.7-1.3h0.1c1.5,0,3,0.3,4.3,1
	l12.5-7.4c0.1-5.1,4.2-9.1,9.3-9.2H36.7 M14.8,20.9c-0.3,0-0.6-0.1-0.8-0.2c-1-0.7-2.3-1-3.5-1h-0.1c-1.1,0-2.2,0.3-3.2,0.9
	c-1.5,0.9-2.5,2.3-2.9,4C3.8,26.2,4,28,4.9,29.4c1.2,2,3.3,3.2,5.6,3.2h0.1c1.1,0,2.2-0.3,3.2-0.9l0.3-0.2c0.3-0.2,0.5-0.3,0.9-0.3
	c0.3,0,0.5,0.1,0.7,0.2l18.6,10.4c0.5,0.3,0.8,0.8,0.8,1.4c-0.2,3.6,2.6,6.6,6.1,6.8c0.1,0,0.2,0,0.3,0h0.1c3.6-0.1,6.4-3,6.4-6.5
	c0-1.1-0.3-2.2-0.9-3.2c-1.2-2-3.3-3.1-5.5-3.2h-0.1c-1.1,0-2.2,0.3-3.2,0.9l-0.3,0.2c-0.2,0.2-0.5,0.3-0.8,0.3
	c-0.3,0-0.5-0.1-0.7-0.2L17.7,27.8c-0.5-0.3-0.8-0.8-0.8-1.4c0-0.3,0-0.5,0-0.8c0-0.6,0.2-1.1,0.7-1.4l14-8.3
	c0.2-0.1,0.5-0.2,0.8-0.2c0.3,0,0.6,0.1,0.8,0.2c1,0.7,2.3,1,3.5,1h0.1c3.6-0.3,6.2-3.5,5.9-7c-0.3-3.2-2.8-5.7-6-5.9h-0.1
	c-3.6,0-6.4,3-6.4,6.5c0,0.1,0,0.3,0,0.4c0,0.6-0.2,1.1-0.7,1.4l-14,8.3C15.3,20.8,15,20.9,14.8,20.9 M36.7,0h-0.1
	c-5.4,0.1-9.9,4.2-10.3,9.6l-11.5,6.9c-1.3-0.6-2.8-0.9-4.3-0.9h-0.1C4.5,15.7-0.1,20.4,0,26.2c0,1.8,0.5,3.6,1.5,5.2
	c1.9,3.2,5.3,5.1,9,5.1h0.1c1.5,0,3-0.4,4.4-1l16.2,9c0.6,5.3,5.1,9.4,10.4,9.4h0.1c1.8,0,3.6-0.5,5.2-1.5c4.9-3,6.5-9.4,3.5-14.4
	c-1.9-3.1-5.3-5-8.9-5h-0.1c-1.5,0-3,0.4-4.4,1l-14.5-8.1l9.9-5.9c1.3,0.6,2.8,0.9,4.3,0.9h0.1c5.8-0.3,10.2-5.2,9.9-11
	C46.5,4.5,42.1,0.2,36.7,0z M14.8,21.9c0.5,0,0.9-0.1,1.3-0.4l14-8.3c0.8-0.5,1.3-1.4,1.2-2.3c0-0.1,0-0.3,0-0.4
	c0-3,2.3-5.5,5.3-5.5h0.1c3,0.1,5.4,2.6,5.3,5.7c-0.1,2.8-2.4,5.1-5.2,5.3h-0.1c-1.1,0-2.1-0.3-3-0.9c-0.8-0.5-1.8-0.5-2.6,0
	l-14,8.3c-0.8,0.5-1.3,1.4-1.2,2.3c0,0.2,0,0.5,0,0.7c-0.1,0.9,0.4,1.8,1.3,2.3l18.7,10.4c0.4,0.2,0.8,0.3,1.2,0.3
	c0.5,0,1-0.1,1.4-0.4l0.3-0.2c0.8-0.5,1.8-0.8,2.7-0.8h0.1c3,0.1,5.4,2.6,5.3,5.6c-0.1,2.8-2.3,5.1-5.2,5.3h-0.1
	c-3,0-5.5-2.4-5.5-5.4c0-0.1,0-0.2,0-0.3c0.1-1-0.4-1.9-1.3-2.3L16.2,30.4c-0.4-0.2-0.8-0.3-1.2-0.3c-0.5,0-1,0.1-1.4,0.4l-0.3,0.2
	c-0.8,0.5-1.8,0.8-2.7,0.8h-0.1c-1.9,0-3.7-1-4.7-2.7c-1.5-2.6-0.7-5.9,1.9-7.5c0.8-0.5,1.8-0.8,2.7-0.8h0.1c1.1,0,2.1,0.3,3,0.9
	C13.9,21.7,14.4,21.9,14.8,21.9L14.8,21.9z"/>
</svg>
