<?xml version="1.0" encoding="utf-8"?>
<!-- Generator: Adobe Illustrator 22.0.0, SVG Export Plug-In . SVG Version: 6.00 Build 0)  -->
<svg version="1.1" id="Layer_1" xmlns="http://www.w3.org/2000/svg" xmlns:xlink="http://www.w3.org/1999/xlink" x="0px" y="0px"
	 viewBox="0 0 377.4 385.6" style="enable-background:new 0 0 377.4 385.6;" xml:space="preserve">
<title>icon-flag</title>
<g id="Layer_2_1_">
	<g id="Layer_1-2">
		<path d="M16.1,382.1c-7,0-12.6-5.6-12.6-12.6V16.1c0-7,5.7-12.6,12.6-12.6h201.7c7,0,12.6,5.7,12.6,12.6v165.7
			c0,7-5.7,12.6-12.6,12.6H28.7v175C28.7,376.4,23.1,382.1,16.1,382.1C16.1,382.1,16.1,382.1,16.1,382.1z M205.2,169.2V28.7H28.7
			v140.4H205.2z"/>
		<path d="M217.9,7c5,0,9.1,4.1,9.1,9.1c0,0,0,0,0,0v165.7c0,5-4.1,9.1-9.1,9.1H25.2v178.5c-0.2,5-4.4,9-9.4,8.8
			c-4.8-0.2-8.7-4-8.8-8.8V16.1c0-5,4.1-9.1,9.1-9.1l0,0H217.9 M25.2,172.7h183.5V25.2H25.2V172.7 M217.9,0H16.1C7.2,0,0,7.2,0,16.1
			v353.3c0.2,8.9,7.6,15.9,16.5,15.7c8.6-0.2,15.5-7.1,15.7-15.7V197.9h185.6c8.9,0,16.1-7.2,16.1-16.1V16.1
			C234,7.2,226.8,0,217.9,0z M32.2,32.2h169.5v133.4H32.2V32.2z"/>
		<path d="M159.5,246c-7,0-12.6-5.6-12.6-12.6v-37.8h71.7l-36,25.2h159L312,156.2c-1.5-3.3-1.5-7.1,0-10.5l29.7-65.4H228.9V55.1
			h132.3c7,0,12.6,5.6,12.6,12.6c0,1.8-0.4,3.6-1.1,5.2l-35.4,78l34.8,75.9c3.6,5.9,1.8,13.7-4.2,17.3c-2,1.2-4.2,1.8-6.5,1.9H159.5
			z"/>
		<path d="M361.2,58.6c5,0,9.1,4.1,9.1,9.1c0,1.3-0.3,2.6-0.8,3.8l-36.1,79.5l35.5,77.6c2.7,4.2,1.4,9.9-2.8,12.6
			c-1.5,0.9-3.2,1.4-4.9,1.4H159.5c-5,0-9.1-4.1-9.1-9.1c0,0,0,0,0,0v-34.3h57.1l-36,25.2H347l-31.9-69.5c-1.1-2.4-1.1-5.2,0-7.6
			l31.9-70.4H232.4V58.6H361.2 M361.2,51.6H225.4v32.2h110.8l-27.4,60.5c-1.9,4.2-1.9,9.1,0,13.4l27.3,59.6H193.7l17.8-12.5
			l18.2-12.7h-86.3v41.3c0,8.9,7.2,16.1,16.1,16.1h202.1c8.9-0.1,16-7.4,15.9-16.3c0-2.8-0.8-5.5-2.2-8l-34-74.3l34.7-76.6
			c3.7-8.1,0.1-17.7-8-21.3C365.8,52.1,363.5,51.6,361.2,51.6L361.2,51.6z"/>
	</g>
</g>
</svg>
