<svg xmlns="http://www.w3.org/2000/svg" viewBox="0 0 296.13 276.34"><defs><style>.cls-1{fill:#231f20;stroke:#fff;stroke-miterlimit:10;}</style></defs><title>icon-like-unliked</title><g id="Layer_2" data-name="Layer 2"><g id="Layer_1-2" data-name="Layer 1"><circle class="cls-1" cx="56.5" cy="198.33" r="9.66"/><path class="cls-1" d="M291.17,124.05c-3.93-8.19-13.49-21.13-35.77-26.41-1.65-.39-3.3-.78-4.9-1.18A168,168,0,0,0,256,76.87c5-10.3,7.61-20.5,7.65-30.34a51.46,51.46,0,0,0-7.15-26.8C249.35,7.87,238.08.5,227.07.5c-.45,0-.89,0-1.33,0-3.09.16-12.51.68-19.43,9-3.62,4.33-5,8.9-6.53,13.75-.74,2.37-1.57,5.06-2.85,8.56-.23.62-.45,1.25-.68,1.89-4.88,13.49-8.73,24.16-37,33.54s-45.1,20.47-53.79,27.58l-19,0A20,20,0,0,0,70.9,87.5H20.5a20,20,0,0,0-20,20V220a20,20,0,0,0,20,20h68a20,20,0,0,0,14.88-6.64c4.61,2.71,9.38,6.07,15.3,10.23,4.77,3.35,10.17,7.15,16.51,11.32,19.92,13.09,46.84,20.91,72,20.91,12.63,0,30.11-2,41.67-11.65,11.16-9.29,15.68-18.56,17.23-26.06,8.95-9,14.53-18.37,16.63-28a39.93,39.93,0,0,0,.9-7c12.86-17.89,12.72-34.35,8.6-46.12C298.48,141.79,294.93,130.54,291.17,124.05ZM14.61,220V107.5H65L82.59,220Zm248.16-23s6.5,12.84-16.26,31.88c0,0,3,8.64-10.44,19.87s-58.72,9.89-89.9-10.6C123.31,223.2,113,213,93.71,207.5L79.24,114.88l34-.08s13.24-15.63,52.31-28.58,44.59-32.13,50.22-47.55,3.89-17.77,11.11-18.16S254,38.11,237,70.21c0,0-3.53,18.74-10.21,31-1.43,2.63-2.74,5-3.81,7.12,5.14,3,12.83,5.24,27.86,8.8,14.65,3.47,20.42,11,22.69,16.35,5.43,8.24-.78,18.84-3.89,23.5C269.59,157,284.67,173,262.77,197.07Z"/></g></g></svg>