<?xml version="1.0" encoding="utf-8"?>
<!-- Generator: Adobe Illustrator 22.1.0, SVG Export Plug-In . SVG Version: 6.00 Build 0)  -->
<svg version="1.1" id="Layer_1" xmlns="http://www.w3.org/2000/svg" xmlns:xlink="http://www.w3.org/1999/xlink" x="0px" y="0px"
	 viewBox="0 0 51.8 54" style="enable-background:new 0 0 51.8 54;" xml:space="preserve">
<style type="text/css">
	.st0{fill:#FFFFFF;}
</style>
<path class="st0" d="M51.6,26.5c0,0.5,0,1,0,1.5c0,0.2-0.1,0.4-0.1,0.7c-0.1,1.1-0.2,2.3-0.4,3.4c-1.3,6.1-4.4,11.2-9.3,15.1
	c-3.3,2.7-7.1,4.4-11.3,5.1c-1.1,0.2-2.3,0.3-3.4,0.5c-0.8,0-1.6,0-2.4,0c-0.6-0.1-1.3-0.2-1.9-0.2c-4.1-0.5-7.8-1.8-11.2-4.2
	C3.5,42.6-0.2,34.8,0.3,25c0.2-4,1.4-7.7,3.5-11.1C9.2,4.8,19.3,0.1,29.6,1.6c6.8,1,12.4,4.3,16.7,9.8c2.7,3.5,4.4,7.4,5,11.8
	C51.4,24.3,51.5,25.4,51.6,26.5z M25.9,6.3c-11.6-0.1-20.4,9.4-20.7,20c-0.3,12.1,9.4,21.4,20.6,21.5c11.6,0.1,20.9-9.4,20.9-20.5
	C46.7,15.4,37.1,6.2,25.9,6.3z"/>
<path class="st0" d="M29.4,32.5c-2.2,0-4.3,0-6.5,0c0-6.7,0-13.3,0-20c2.1,0,4.3,0,6.5,0C29.4,19.2,29.4,25.8,29.4,32.5z"/>
<path class="st0" d="M22.6,39.1c0-1.9,1.6-3.5,3.5-3.5c1.9,0,3.5,1.6,3.5,3.6c0,1.9-1.6,3.5-3.5,3.5C24.2,42.7,22.6,41.1,22.6,39.1z
	"/>
</svg>
