<svg id="Layer_1" data-name="Layer 1" xmlns="http://www.w3.org/2000/svg" viewBox="0 0 51.34 51.39"><title>report</title><path d="M51.59,26.49V28c0,.22-.08.44-.11.67-.14,1.12-.18,2.27-.42,3.38a25.42,25.42,0,0,1-9.29,15.09,24.55,24.55,0,0,1-11.32,5.09c-1.14.19-2.29.32-3.44.47H24.64l-1.9-.23a24.17,24.17,0,0,1-11.18-4.17C3.53,42.61-.22,34.81.3,25A23.83,23.83,0,0,1,3.79,13.91,25.55,25.55,0,0,1,29.57,1.58,24.94,24.94,0,0,1,46.25,11.4a24.66,24.66,0,0,1,5,11.83C51.38,24.31,51.47,25.4,51.59,26.49ZM25.88,6.28A20.73,20.73,0,1,0,46.61,27.2,20.74,20.74,0,0,0,25.88,6.28Z" transform="translate(-0.25 -1.31)"/><path d="M29.37,32.55H22.91v-20h6.46Z" transform="translate(-0.25 -1.31)"/><path d="M22.61,39.14a3.53,3.53,0,1,1,3.53,3.58A3.54,3.54,0,0,1,22.61,39.14Z" transform="translate(-0.25 -1.31)"/></svg>